<?xml version="1.0" encoding="UTF-8"?>
<svg version="1.1" xmlns="http://www.w3.org/2000/svg" width="752" height="1376">
<path d="M0 0 C248.16 0 496.32 0 752 0 C752 454.08 752 908.16 752 1376 C503.84 1376 255.68 1376 0 1376 C0 921.92 0 467.84 0 0 Z " fill="#FDFDFD" transform="translate(0,0)"/>
<path d="M0 0 C248.16 0 496.32 0 752 0 C752 454.08 752 908.16 752 1376 C503.84 1376 255.68 1376 0 1376 C0 921.92 0 467.84 0 0 Z M150 110 C149.67 119.24 149.34 128.48 149 138 C113.03 138.33 77.06 138.66 40 139 C40 210.28 40 281.56 40 355 C75.64 355 111.28 355 148 355 C148 355.66 148 356.32 148 357 C112.36 357 76.72 357 40 357 C40 380.76 40 404.52 40 429 C75.64 429 111.28 429 148 429 C148 429.66 148 430.32 148 431 C112.36 431 76.72 431 40 431 C40 500.63 40 570.26 40 642 C75.64 642 111.28 642 148 642 C148 642.66 148 643.32 148 644 C112.36 644 76.72 644 40 644 C40 690.53 40 737.06 40 785 C75.64 785 111.28 785 148 785 C148 785.66 148 786.32 148 787 C112.36 787 76.72 787 40 787 C40 833.2 40 879.4 40 927 C75.64 927 111.28 927 148 927 C148 927.66 148 928.32 148 929 C112.36 929 76.72 929 40 929 C40 952.76 40 976.52 40 1001 C75.64 1001 111.28 1001 148 1001 C148 1001.66 148 1002.32 148 1003 C112.36 1003 76.72 1003 40 1003 C40 1029.73 40 1056.46 40 1084 C76.3 1084 112.6 1084 150 1084 C150 1102.15 150 1120.3 150 1139 C186.63 1139 223.26 1139 261 1139 C261 1132.07 261 1125.14 261 1118 C298.95 1118 336.9 1118 376 1118 C376 1081.37 376 1044.74 376 1007 C338.71 1007 301.42 1007 263 1007 C263 1006.34 263 1005.68 263 1005 C300.62 1005 338.24 1005 377 1005 C377 979.92 377 954.84 377 929 C339.38 929 301.76 929 263 929 C263 928.34 263 927.68 263 927 C300.62 927 338.24 927 377 927 C377 904.56 377 882.12 377 859 C339.38 859 301.76 859 263 859 C263 858.34 263 857.68 263 857 C300.29 857 337.58 857 376 857 C376 833.9 376 810.8 376 787 C338.38 787 300.76 787 262 787 C262 786.34 262 785.68 262 785 C299.95 785 337.9 785 377 785 C377 762.56 377 740.12 377 717 C339.38 717 301.76 717 263 717 C263 716.34 263 715.68 263 715 C300.29 715 337.58 715 376 715 C376 691.57 376 668.14 376 644 C338.71 644 301.42 644 263 644 C263 643.34 263 642.68 263 642 C300.29 642 337.58 642 376 642 C375.96038594 619.00792293 375.96038594 619.00792293 375.90991211 596.01586914 C375.90539551 591.57702637 375.90539551 591.57702637 375.90455627 589.50144958 C375.90301697 588.04649042 375.89949232 586.59153257 375.89442444 585.13658142 C375.88714498 582.93746715 375.88609265 580.73843108 375.88647461 578.53930664 C375.884254 577.29798477 375.88203339 576.0566629 375.87974548 574.77772522 C376 572 376 572 377 571 C377.09641497 569.19039129 377.12187398 567.37697872 377.12025452 565.56480408 C377.12162918 564.38544785 377.12300385 563.20609161 377.12442017 561.99099731 C377.12082489 560.6854892 377.11722961 559.37998108 377.11352539 558.03491211 C377.11324352 556.65547182 377.11340125 555.27603139 377.1139679 553.89659119 C377.11425588 550.14055882 377.10835905 546.38455811 377.10139394 542.62853312 C377.09516051 538.70739955 377.09455661 534.78626533 377.09336853 530.86512756 C377.09025518 523.43488389 377.08204175 516.00465486 377.07201904 508.57441765 C377.0587728 498.53747659 377.05335802 488.50053154 377.04751682 478.46358395 C377.03810186 462.64237832 377.01818297 446.8212036 377 431 C339.38 431 301.76 431 263 431 C263 430.34 263 429.68 263 429 C300.29 429 337.58 429 376 429 C376 405.24 376 381.48 376 357 C338.71 357 301.42 357 263 357 C263 356.34 263 355.68 263 355 C300.62 355 338.24 355 377 355 C377 343.49125 377 331.9825 377 320.125 C377 284.41666667 377 248.70833333 377 213 C377.33 213 377.66 213 378 213 C378 259.86 378 306.72 378 355 C415.29 355 452.58 355 491 355 C491 355.66 491 356.32 491 357 C453.71 357 416.42 357 378 357 C378 380.76 378 404.52 378 429 C415.62 429 453.24 429 492 429 C492 429.66 492 430.32 492 431 C454.38 431 416.76 431 378 431 C378 500.63 378 570.26 378 642 C415.62 642 453.24 642 492 642 C492 642.66 492 643.32 492 644 C454.38 644 416.76 644 378 644 C378 667.43 378 690.86 378 715 C415.62 715 453.24 715 492 715 C492 715.66 492 716.32 492 717 C454.38 717 416.76 717 378 717 C378 739.44 378 761.88 378 785 C415.62 785 453.24 785 492 785 C492 785.66 492 786.32 492 787 C454.38 787 416.76 787 378 787 C378 810.1 378 833.2 378 857 C415.62 857 453.24 857 492 857 C492 857.66 492 858.32 492 859 C454.38 859 416.76 859 378 859 C378 881.44 378 903.88 378 927 C415.62 927 453.24 927 492 927 C492 927.66 492 928.32 492 929 C454.38 929 416.76 929 378 929 C378 954.08 378 979.16 378 1005 C415.62 1005 453.24 1005 492 1005 C492 1005.66 492 1006.32 492 1007 C454.38 1007 416.76 1007 378 1007 C378 1043.63 378 1080.26 378 1118 C415.62 1118.33 453.24 1118.66 492 1119 C492.33 1125.6 492.66 1132.2 493 1139 C529.96 1139 566.92 1139 605 1139 C605 1120.85 605 1102.7 605 1084 C640.97 1084 676.94 1084 714 1084 C714 1057.27 714 1030.54 714 1003 C678.69 1003 643.38 1003 607 1003 C607 1002.34 607 1001.68 607 1001 C642.31 1001 677.62 1001 714 1001 C714 977.24 714 953.48 714 929 C678.69 929 643.38 929 607 929 C607 928.34 607 927.68 607 927 C642.31 927 677.62 927 714 927 C714 904.56 714 882.12 714 859 C678.69 859 643.38 859 607 859 C607 858.34 607 857.68 607 857 C642.31 857 677.62 857 714 857 C714 833.9 714 810.8 714 787 C678.69 787 643.38 787 607 787 C607 786.34 607 785.68 607 785 C642.31 785 677.62 785 714 785 C714 762.56 714 740.12 714 717 C678.69 717 643.38 717 607 717 C607 716.34 607 715.68 607 715 C642.31 715 677.62 715 714 715 C714 691.57 714 668.14 714 644 C678.69 644 643.38 644 607 644 C607 643.34 607 642.68 607 642 C642.31 642 677.62 642 714 642 C714 595.47 714 548.94 714 501 C678.69 501 643.38 501 607 501 C607 500.34 607 499.68 607 499 C642.31 499 677.62 499 714 499 C714 476.56 714 454.12 714 431 C678.69 431 643.38 431 607 431 C607 430.34 607 429.68 607 429 C642.31 429 677.62 429 714 429 C714 405.24 714 381.48 714 357 C678.69 357 643.38 357 607 357 C607 356.34 607 355.68 607 355 C642.31 355 677.62 355 714 355 C714 283.39 714 211.78 714 138 C678.03 138 642.06 138 605 138 C605 128.76 605 119.52 605 110 C454.85 110 304.7 110 150 110 Z " fill="#FEFEFE" transform="translate(0,0)"/>
<path d="M0 0 C233.64 0 467.28 0 708 0 C708 346.17 708 692.34 708 1049 C667.08 1049 626.16 1049 584 1049 C584 1031.18 584 1013.36 584 995 C619.97 995 655.94 995 693 995 C693 681.83 693 368.66 693 46 C657.03 46 621.06 46 584 46 C584 37.09 584 28.18 584 19 C432.86 19 281.72 19 126 19 C126 28.24 126 37.48 126 47 C89.7 47 53.4 47 16 47 C16 360.17 16 673.34 16 996 C52.3 996 88.6 996 126 996 C126 1013.49 126 1030.98 126 1049 C84.42 1049 42.84 1049 0 1049 C0 702.83 0 356.66 0 0 Z " fill="#FAFAFA" transform="translate(23,90)"/>
<path d="M0 0 C1.01971728 -0.00250352 2.03943456 -0.00500704 3.09005237 -0.00758642 C4.79431097 -0.00407467 4.79431097 -0.00407467 6.53299904 -0.00049198 C7.7325986 -0.00194542 8.93219817 -0.00339886 10.16814923 -0.00489634 C13.52789021 -0.00793808 16.88757604 -0.0064442 20.24731329 -0.00311839 C23.89106339 -0.00059761 27.53480889 -0.00383524 31.17855835 -0.00636172 C37.57460862 -0.00998644 43.97065046 -0.00985589 50.36670113 -0.00731456 C59.87755315 -0.00354583 69.388398 -0.00545863 78.89924997 -0.00852287 C95.88157022 -0.01380023 112.86388671 -0.01332761 129.84620732 -0.01044396 C144.70733027 -0.00793275 159.56845185 -0.00726967 174.42957497 -0.0084666 C175.90571349 -0.00858118 175.90571349 -0.00858118 177.41167299 -0.00869807 C181.40598303 -0.00900939 185.40029306 -0.00932779 189.3946031 -0.00965784 C226.89792599 -0.01271986 264.40124648 -0.00993858 301.904569 -0.00456094 C335.25610629 0.000185 368.60763976 -0.00023961 401.95917702 -0.00502193 C439.39198363 -0.01037147 476.82478812 -0.01250274 514.25759506 -0.00940967 C518.24481265 -0.00908893 522.23203023 -0.00877609 526.21924782 -0.0084666 C527.69198219 -0.00834799 527.69198219 -0.00834799 529.19446878 -0.00822697 C544.04969356 -0.00708739 558.90491681 -0.00842369 573.76014137 -0.01094615 C590.64375421 -0.01379867 607.52736269 -0.01310503 624.41097498 -0.00766541 C633.87113344 -0.00471841 643.33128249 -0.0045528 652.79144072 -0.00831159 C659.09855824 -0.01054213 665.40566815 -0.00918001 671.71278454 -0.00480682 C675.31428991 -0.00241197 678.91577647 -0.00164766 682.51728129 -0.0052128 C686.38347234 -0.00900121 690.24963313 -0.00517627 694.11582375 -0.00049198 C695.25199615 -0.00283314 696.38816855 -0.00517431 697.55877042 -0.00758642 C699.08834634 -0.00383114 699.08834634 -0.00383114 700.64882278 0 C701.53441301 0.00006776 702.42000324 0.00013552 703.33242953 0.00020533 C705.32441139 0.12534916 705.32441139 0.12534916 706.32441139 1.12534916 C706.42304299 3.41134401 706.44888206 5.70046879 706.44860989 7.98859042 C706.44988797 8.71971162 706.45116606 9.45083282 706.45248288 10.20410921 C706.45558134 12.69017856 706.45146105 15.17618613 706.44745922 17.6622535 C706.44819792 19.45582402 706.4493755 21.2493944 706.45095572 23.04296437 C706.45404602 28.01822416 706.45083213 32.99346376 706.44667759 37.96872206 C706.44326137 43.36371957 706.44561073 48.7587149 706.44725507 54.15371281 C706.44933512 63.62451508 706.44767434 73.09531109 706.44361687 82.56611264 C706.43760017 96.64901329 706.43727935 110.73190997 706.43815886 124.81481168 C706.4394751 148.50054039 706.43612974 172.18626624 706.43014145 195.87199414 C706.42422341 219.33583476 706.42036725 242.79967423 706.41928864 266.26351559 C706.41925422 266.99162122 706.41921981 267.71972685 706.41918436 268.46989629 C706.41887117 275.11980507 706.41858348 281.76971386 706.41832638 288.41962264 C706.4176869 304.95217439 706.41672753 321.48472612 706.41555119 338.01727784 C706.41549787 338.77021861 706.41544455 339.52315939 706.41538962 340.29891655 C706.41276671 376.94475585 706.40645858 413.59059439 706.39985085 450.23643315 C706.39755923 462.95685144 706.39528389 475.67726973 706.39307594 488.39768803 C706.39287052 489.58103506 706.39287052 489.58103506 706.39266095 490.7882881 C706.38632013 527.44310757 706.3826031 564.09792717 706.37954312 600.75274704 C706.37934255 603.15037556 706.37914025 605.54800407 706.37893739 607.94563258 C706.37682405 632.93171711 706.37483695 657.91780164 706.37290461 682.90388618 C706.37282179 683.97463344 706.37282179 683.97463344 706.3727373 685.06701194 C706.37258881 686.98824071 706.37244061 688.90946948 706.37229244 690.83069824 C706.36289885 811.26224999 706.34283007 931.69379778 706.32441139 1052.12534916 C471.36441139 1052.12534916 236.40441139 1052.12534916 -5.67558861 1052.12534916 C-5.71596725 788.10735224 -5.71596725 788.10735224 -5.72375357 687.14938164 C-5.72386295 685.73421649 -5.72397237 684.31905134 -5.72408183 682.90388618 C-5.72413671 682.19430872 -5.72419158 681.48473125 -5.72424812 680.75365144 C-5.72618972 655.68355144 -5.72819663 630.61345144 -5.73031786 605.54335146 C-5.73051976 603.15046174 -5.73071994 600.75757203 -5.7309197 598.36468231 C-5.73398615 561.7090173 -5.7378899 525.05335263 -5.74425316 488.39768803 C-5.74439006 487.60898635 -5.74452696 486.82028467 -5.744668 486.00768293 C-5.74688047 473.29089277 -5.74916404 460.57410262 -5.75145705 447.85731248 C-5.75805784 411.24396769 -5.76413573 374.63062316 -5.7667284 338.01727784 C-5.76678194 337.2648851 -5.76683547 336.51249237 -5.76689063 335.73729986 C-5.7680562 319.22331713 -5.76895114 302.70933439 -5.76958959 286.19535163 C-5.76985122 279.55140628 -5.77015184 272.90746094 -5.77046585 266.26351559 C-5.77049928 265.53634958 -5.77053271 264.80918357 -5.77056715 264.05998223 C-5.77166487 240.60266898 -5.77594028 217.14535761 -5.78187082 193.68804512 C-5.78799225 169.41682957 -5.79060577 145.1456163 -5.78908999 120.87439997 C-5.78832629 106.86625332 -5.79038479 92.85811352 -5.79638615 78.8499681 C-5.80011563 69.51125516 -5.80026678 60.17254674 -5.79742042 50.8338335 C-5.79590001 45.50080199 -5.7960185 40.1677835 -5.80047179 34.83475334 C-5.80448322 29.99449369 -5.80399309 25.15425736 -5.79972858 20.31399811 C-5.7990074 18.56296274 -5.80000521 16.81192573 -5.80282385 15.06089248 C-5.80638156 12.70342911 -5.80390822 10.34605092 -5.7997871 7.98859042 C-5.79994308 6.67726131 -5.80009907 5.3659322 -5.80025977 4.01486585 C-5.60017187 -0.62259241 -4.19873751 0.00032126 0 0 Z M-3.67558861 2.12534916 C-3.67558861 348.29534916 -3.67558861 694.46534916 -3.67558861 1051.12534916 C37.90441139 1051.12534916 79.48441139 1051.12534916 122.32441139 1051.12534916 C122.32441139 1033.63534916 122.32441139 1016.14534916 122.32441139 998.12534916 C86.02441139 998.12534916 49.72441139 998.12534916 12.32441139 998.12534916 C12.32441139 684.95534916 12.32441139 371.78534916 12.32441139 49.12534916 C48.62441139 49.12534916 84.92441139 49.12534916 122.32441139 49.12534916 C122.32441139 39.88534916 122.32441139 30.64534916 122.32441139 21.12534916 C273.46441139 21.12534916 424.60441139 21.12534916 580.32441139 21.12534916 C580.32441139 30.03534916 580.32441139 38.94534916 580.32441139 48.12534916 C616.29441139 48.12534916 652.26441139 48.12534916 689.32441139 48.12534916 C689.32441139 361.29534916 689.32441139 674.46534916 689.32441139 997.12534916 C653.35441139 997.12534916 617.38441139 997.12534916 580.32441139 997.12534916 C580.32441139 1014.94534916 580.32441139 1032.76534916 580.32441139 1051.12534916 C621.24441139 1051.12534916 662.16441139 1051.12534916 704.32441139 1051.12534916 C704.32441139 704.95534916 704.32441139 358.78534916 704.32441139 2.12534916 C470.68441139 2.12534916 237.04441139 2.12534916 -3.67558861 2.12534916 Z M123.32441139 22.12534916 C122.99441139 31.36534916 122.66441139 40.60534916 122.32441139 50.12534916 C86.35441139 50.45534916 50.38441139 50.78534916 13.32441139 51.12534916 C13.32441139 122.40534916 13.32441139 193.68534916 13.32441139 267.12534916 C48.96441139 267.12534916 84.60441139 267.12534916 121.32441139 267.12534916 C121.32441139 267.78534916 121.32441139 268.44534916 121.32441139 269.12534916 C85.68441139 269.12534916 50.04441139 269.12534916 13.32441139 269.12534916 C13.32441139 292.88534916 13.32441139 316.64534916 13.32441139 341.12534916 C48.96441139 341.12534916 84.60441139 341.12534916 121.32441139 341.12534916 C121.32441139 341.78534916 121.32441139 342.44534916 121.32441139 343.12534916 C85.68441139 343.12534916 50.04441139 343.12534916 13.32441139 343.12534916 C13.32441139 412.75534916 13.32441139 482.38534916 13.32441139 554.12534916 C48.96441139 554.12534916 84.60441139 554.12534916 121.32441139 554.12534916 C121.32441139 554.78534916 121.32441139 555.44534916 121.32441139 556.12534916 C85.68441139 556.12534916 50.04441139 556.12534916 13.32441139 556.12534916 C13.32441139 602.65534916 13.32441139 649.18534916 13.32441139 697.12534916 C48.96441139 697.12534916 84.60441139 697.12534916 121.32441139 697.12534916 C121.32441139 697.78534916 121.32441139 698.44534916 121.32441139 699.12534916 C85.68441139 699.12534916 50.04441139 699.12534916 13.32441139 699.12534916 C13.32441139 745.32534916 13.32441139 791.52534916 13.32441139 839.12534916 C48.96441139 839.12534916 84.60441139 839.12534916 121.32441139 839.12534916 C121.32441139 839.78534916 121.32441139 840.44534916 121.32441139 841.12534916 C85.68441139 841.12534916 50.04441139 841.12534916 13.32441139 841.12534916 C13.32441139 864.88534916 13.32441139 888.64534916 13.32441139 913.12534916 C48.96441139 913.12534916 84.60441139 913.12534916 121.32441139 913.12534916 C121.32441139 913.78534916 121.32441139 914.44534916 121.32441139 915.12534916 C85.68441139 915.12534916 50.04441139 915.12534916 13.32441139 915.12534916 C13.32441139 941.85534916 13.32441139 968.58534916 13.32441139 996.12534916 C49.62441139 996.12534916 85.92441139 996.12534916 123.32441139 996.12534916 C123.32441139 1014.27534916 123.32441139 1032.42534916 123.32441139 1051.12534916 C159.95441139 1051.12534916 196.58441139 1051.12534916 234.32441139 1051.12534916 C234.32441139 1044.19534916 234.32441139 1037.26534916 234.32441139 1030.12534916 C272.27441139 1030.12534916 310.22441139 1030.12534916 349.32441139 1030.12534916 C349.32441139 993.49534916 349.32441139 956.86534916 349.32441139 919.12534916 C312.03441139 919.12534916 274.74441139 919.12534916 236.32441139 919.12534916 C236.32441139 918.46534916 236.32441139 917.80534916 236.32441139 917.12534916 C273.94441139 917.12534916 311.56441139 917.12534916 350.32441139 917.12534916 C350.32441139 892.04534916 350.32441139 866.96534916 350.32441139 841.12534916 C312.70441139 841.12534916 275.08441139 841.12534916 236.32441139 841.12534916 C236.32441139 840.46534916 236.32441139 839.80534916 236.32441139 839.12534916 C273.94441139 839.12534916 311.56441139 839.12534916 350.32441139 839.12534916 C350.32441139 816.68534916 350.32441139 794.24534916 350.32441139 771.12534916 C312.70441139 771.12534916 275.08441139 771.12534916 236.32441139 771.12534916 C236.32441139 770.46534916 236.32441139 769.80534916 236.32441139 769.12534916 C273.61441139 769.12534916 310.90441139 769.12534916 349.32441139 769.12534916 C349.32441139 746.02534916 349.32441139 722.92534916 349.32441139 699.12534916 C311.70441139 699.12534916 274.08441139 699.12534916 235.32441139 699.12534916 C235.32441139 698.46534916 235.32441139 697.80534916 235.32441139 697.12534916 C273.27441139 697.12534916 311.22441139 697.12534916 350.32441139 697.12534916 C350.32441139 674.68534916 350.32441139 652.24534916 350.32441139 629.12534916 C312.70441139 629.12534916 275.08441139 629.12534916 236.32441139 629.12534916 C236.32441139 628.46534916 236.32441139 627.80534916 236.32441139 627.12534916 C273.61441139 627.12534916 310.90441139 627.12534916 349.32441139 627.12534916 C349.32441139 603.69534916 349.32441139 580.26534916 349.32441139 556.12534916 C312.03441139 556.12534916 274.74441139 556.12534916 236.32441139 556.12534916 C236.32441139 555.46534916 236.32441139 554.80534916 236.32441139 554.12534916 C273.61441139 554.12534916 310.90441139 554.12534916 349.32441139 554.12534916 C349.28479734 531.1332721 349.28479734 531.1332721 349.2343235 508.1412183 C349.2298069 503.70237553 349.2298069 503.70237553 349.22896767 501.62679875 C349.22742836 500.17183959 349.22390371 498.71688173 349.21883583 497.26193058 C349.21155637 495.06281631 349.21050404 492.86378025 349.210886 490.6646558 C349.20866539 489.42333394 349.20644478 488.18201207 349.20415688 486.90307438 C349.32441139 484.12534916 349.32441139 484.12534916 350.32441139 483.12534916 C350.42082636 481.31574045 350.44628537 479.50232788 350.44466591 477.69015324 C350.44604057 476.51079701 350.44741524 475.33144078 350.44883156 474.11634648 C350.44523628 472.81083836 350.44164101 471.50533024 350.43793678 470.16026127 C350.43765491 468.78082099 350.43781264 467.40138055 350.43837929 466.02194035 C350.43866727 462.26590798 350.43277044 458.50990727 350.42580533 454.75388229 C350.4195719 450.83274872 350.418968 446.91161449 350.41777992 442.99047673 C350.41466657 435.56023306 350.40645314 428.13000403 350.39643043 420.69976681 C350.38318419 410.66282575 350.37776942 400.62588071 350.37192822 390.58893311 C350.36251325 374.76772749 350.34259436 358.94655276 350.32441139 343.12534916 C312.70441139 343.12534916 275.08441139 343.12534916 236.32441139 343.12534916 C236.32441139 342.46534916 236.32441139 341.80534916 236.32441139 341.12534916 C273.61441139 341.12534916 310.90441139 341.12534916 349.32441139 341.12534916 C349.32441139 317.36534916 349.32441139 293.60534916 349.32441139 269.12534916 C312.03441139 269.12534916 274.74441139 269.12534916 236.32441139 269.12534916 C236.32441139 268.46534916 236.32441139 267.80534916 236.32441139 267.12534916 C273.94441139 267.12534916 311.56441139 267.12534916 350.32441139 267.12534916 C350.32441139 255.61659916 350.32441139 244.10784916 350.32441139 232.25034916 C350.32441139 196.54201583 350.32441139 160.8336825 350.32441139 125.12534916 C350.65441139 125.12534916 350.98441139 125.12534916 351.32441139 125.12534916 C351.32441139 171.98534916 351.32441139 218.84534916 351.32441139 267.12534916 C388.61441139 267.12534916 425.90441139 267.12534916 464.32441139 267.12534916 C464.32441139 267.78534916 464.32441139 268.44534916 464.32441139 269.12534916 C427.03441139 269.12534916 389.74441139 269.12534916 351.32441139 269.12534916 C351.32441139 292.88534916 351.32441139 316.64534916 351.32441139 341.12534916 C388.94441139 341.12534916 426.56441139 341.12534916 465.32441139 341.12534916 C465.32441139 341.78534916 465.32441139 342.44534916 465.32441139 343.12534916 C427.70441139 343.12534916 390.08441139 343.12534916 351.32441139 343.12534916 C351.32441139 412.75534916 351.32441139 482.38534916 351.32441139 554.12534916 C388.94441139 554.12534916 426.56441139 554.12534916 465.32441139 554.12534916 C465.32441139 554.78534916 465.32441139 555.44534916 465.32441139 556.12534916 C427.70441139 556.12534916 390.08441139 556.12534916 351.32441139 556.12534916 C351.32441139 579.55534916 351.32441139 602.98534916 351.32441139 627.12534916 C388.94441139 627.12534916 426.56441139 627.12534916 465.32441139 627.12534916 C465.32441139 627.78534916 465.32441139 628.44534916 465.32441139 629.12534916 C427.70441139 629.12534916 390.08441139 629.12534916 351.32441139 629.12534916 C351.32441139 651.56534916 351.32441139 674.00534916 351.32441139 697.12534916 C388.94441139 697.12534916 426.56441139 697.12534916 465.32441139 697.12534916 C465.32441139 697.78534916 465.32441139 698.44534916 465.32441139 699.12534916 C427.70441139 699.12534916 390.08441139 699.12534916 351.32441139 699.12534916 C351.32441139 722.22534916 351.32441139 745.32534916 351.32441139 769.12534916 C388.94441139 769.12534916 426.56441139 769.12534916 465.32441139 769.12534916 C465.32441139 769.78534916 465.32441139 770.44534916 465.32441139 771.12534916 C427.70441139 771.12534916 390.08441139 771.12534916 351.32441139 771.12534916 C351.32441139 793.56534916 351.32441139 816.00534916 351.32441139 839.12534916 C388.94441139 839.12534916 426.56441139 839.12534916 465.32441139 839.12534916 C465.32441139 839.78534916 465.32441139 840.44534916 465.32441139 841.12534916 C427.70441139 841.12534916 390.08441139 841.12534916 351.32441139 841.12534916 C351.32441139 866.20534916 351.32441139 891.28534916 351.32441139 917.12534916 C388.94441139 917.12534916 426.56441139 917.12534916 465.32441139 917.12534916 C465.32441139 917.78534916 465.32441139 918.44534916 465.32441139 919.12534916 C427.70441139 919.12534916 390.08441139 919.12534916 351.32441139 919.12534916 C351.32441139 955.75534916 351.32441139 992.38534916 351.32441139 1030.12534916 C388.94441139 1030.45534916 426.56441139 1030.78534916 465.32441139 1031.12534916 C465.65441139 1037.72534916 465.98441139 1044.32534916 466.32441139 1051.12534916 C503.28441139 1051.12534916 540.24441139 1051.12534916 578.32441139 1051.12534916 C578.32441139 1032.97534916 578.32441139 1014.82534916 578.32441139 996.12534916 C614.29441139 996.12534916 650.26441139 996.12534916 687.32441139 996.12534916 C687.32441139 969.39534916 687.32441139 942.66534916 687.32441139 915.12534916 C652.01441139 915.12534916 616.70441139 915.12534916 580.32441139 915.12534916 C580.32441139 914.46534916 580.32441139 913.80534916 580.32441139 913.12534916 C615.63441139 913.12534916 650.94441139 913.12534916 687.32441139 913.12534916 C687.32441139 889.36534916 687.32441139 865.60534916 687.32441139 841.12534916 C652.01441139 841.12534916 616.70441139 841.12534916 580.32441139 841.12534916 C580.32441139 840.46534916 580.32441139 839.80534916 580.32441139 839.12534916 C615.63441139 839.12534916 650.94441139 839.12534916 687.32441139 839.12534916 C687.32441139 816.68534916 687.32441139 794.24534916 687.32441139 771.12534916 C652.01441139 771.12534916 616.70441139 771.12534916 580.32441139 771.12534916 C580.32441139 770.46534916 580.32441139 769.80534916 580.32441139 769.12534916 C615.63441139 769.12534916 650.94441139 769.12534916 687.32441139 769.12534916 C687.32441139 746.02534916 687.32441139 722.92534916 687.32441139 699.12534916 C652.01441139 699.12534916 616.70441139 699.12534916 580.32441139 699.12534916 C580.32441139 698.46534916 580.32441139 697.80534916 580.32441139 697.12534916 C615.63441139 697.12534916 650.94441139 697.12534916 687.32441139 697.12534916 C687.32441139 674.68534916 687.32441139 652.24534916 687.32441139 629.12534916 C652.01441139 629.12534916 616.70441139 629.12534916 580.32441139 629.12534916 C580.32441139 628.46534916 580.32441139 627.80534916 580.32441139 627.12534916 C615.63441139 627.12534916 650.94441139 627.12534916 687.32441139 627.12534916 C687.32441139 603.69534916 687.32441139 580.26534916 687.32441139 556.12534916 C652.01441139 556.12534916 616.70441139 556.12534916 580.32441139 556.12534916 C580.32441139 555.46534916 580.32441139 554.80534916 580.32441139 554.12534916 C615.63441139 554.12534916 650.94441139 554.12534916 687.32441139 554.12534916 C687.32441139 507.59534916 687.32441139 461.06534916 687.32441139 413.12534916 C652.01441139 413.12534916 616.70441139 413.12534916 580.32441139 413.12534916 C580.32441139 412.46534916 580.32441139 411.80534916 580.32441139 411.12534916 C615.63441139 411.12534916 650.94441139 411.12534916 687.32441139 411.12534916 C687.32441139 388.68534916 687.32441139 366.24534916 687.32441139 343.12534916 C652.01441139 343.12534916 616.70441139 343.12534916 580.32441139 343.12534916 C580.32441139 342.46534916 580.32441139 341.80534916 580.32441139 341.12534916 C615.63441139 341.12534916 650.94441139 341.12534916 687.32441139 341.12534916 C687.32441139 317.36534916 687.32441139 293.60534916 687.32441139 269.12534916 C652.01441139 269.12534916 616.70441139 269.12534916 580.32441139 269.12534916 C580.32441139 268.46534916 580.32441139 267.80534916 580.32441139 267.12534916 C615.63441139 267.12534916 650.94441139 267.12534916 687.32441139 267.12534916 C687.32441139 195.51534916 687.32441139 123.90534916 687.32441139 50.12534916 C651.35441139 50.12534916 615.38441139 50.12534916 578.32441139 50.12534916 C578.32441139 40.88534916 578.32441139 31.64534916 578.32441139 22.12534916 C428.17441139 22.12534916 278.02441139 22.12534916 123.32441139 22.12534916 Z " fill="#989898" transform="translate(26.675588607788086,87.8746508359909)"/>
<path d="M0 0 C75.24 0 150.48 0 228 0 C228 0.33 228 0.66 228 1 C190.71 1 153.42 1 115 1 C115 24.43 115 47.86 115 72 C152.62 72 190.24 72 229 72 C229 72.33 229 72.66 229 73 C191.38 73 153.76 73 115 73 C115 96.1 115 119.2 115 143 C152.29 143 189.58 143 228 143 C228 143.66 228 144.32 228 145 C190.71 145 153.42 145 115 145 C115 168.76 115 192.52 115 217 C152.62 217 190.24 217 229 217 C229 217.66 229 218.32 229 219 C191.38 219 153.76 219 115 219 C115 241.77 115 264.54 115 288 C152.29 288 189.58 288 228 288 C228 288.33 228 288.66 228 289 C190.71 289 153.42 289 115 289 C115 312.43 115 335.86 115 360 C152.29 360 189.58 360 228 360 C228 360.33 228 360.66 228 361 C190.71 361 153.42 361 115 361 C115 383.77 115 406.54 115 430 C152.62 430 190.24 430 229 430 C229 430.66 229 431.32 229 432 C191.38 432 153.76 432 115 432 C115 455.43 115 478.86 115 503 C152.62 503 190.24 503 229 503 C229 503.66 229 504.32 229 505 C191.38 505 153.76 505 115 505 C115 527.44 115 549.88 115 573 C152.62 573 190.24 573 229 573 C229 573.66 229 574.32 229 575 C191.38 575 153.76 575 115 575 C115 598.1 115 621.2 115 645 C152.62 645 190.24 645 229 645 C229 645.66 229 646.32 229 647 C191.38 647 153.76 647 115 647 C115 669.44 115 691.88 115 715 C152.62 715 190.24 715 229 715 C229 715.66 229 716.32 229 717 C191.38 717 153.76 717 115 717 C115 742.08 115 767.16 115 793 C152.62 793 190.24 793 229 793 C229 793.66 229 794.32 229 795 C191.38 795 153.76 795 115 795 C115 831.63 115 868.26 115 906 C152.62 906 190.24 906 229 906 C229 912.93 229 919.86 229 927 C153.1 927 77.2 927 -1 927 C-1 920.73 -1 914.46 -1 908 C8.24 908 17.48 908 27 908 C27 911.3 27 914.6 27 918 C27.33 917.67 27.66 917.34 28 917 C28 914.03 28 911.06 28 908 C18.1 907.67 8.2 907.34 -2 907 C-2 906.67 -2 906.34 -2 906 C35.95 906 73.9 906 113 906 C113 869.37 113 832.74 113 795 C75.71 795 38.42 795 0 795 C0 794.34 0 793.68 0 793 C37.62 793 75.24 793 114 793 C114 767.92 114 742.84 114 717 C76.38 717 38.76 717 0 717 C0 716.34 0 715.68 0 715 C37.62 715 75.24 715 114 715 C114 692.56 114 670.12 114 647 C76.38 647 38.76 647 0 647 C0 646.34 0 645.68 0 645 C37.29 645 74.58 645 113 645 C113 621.9 113 598.8 113 575 C75.38 575 37.76 575 -1 575 C-1 574.34 -1 573.68 -1 573 C36.95 573 74.9 573 114 573 C114 550.56 114 528.12 114 505 C76.38 505 38.76 505 0 505 C0 504.34 0 503.68 0 503 C37.29 503 74.58 503 113 503 C113 479.57 113 456.14 113 432 C75.71 432 38.42 432 0 432 C0 431.34 0 430.68 0 430 C37.29 430 74.58 430 113 430 C113 407.23 113 384.46 113 361 C75.71 361 38.42 361 0 361 C0 360.67 0 360.34 0 360 C37.29 359.67 74.58 359.34 113 359 C113.33 335.9 113.66 312.8 114 289 C76.38 289 38.76 289 0 289 C0 288.67 0 288.34 0 288 C37.62 288 75.24 288 114 288 C114 265.23 114 242.46 114 219 C76.38 219 38.76 219 0 219 C0 218.34 0 217.68 0 217 C37.29 217 74.58 217 113 217 C113 193.24 113 169.48 113 145 C75.71 145 38.42 145 0 145 C0 144.34 0 143.68 0 143 C37.62 143 75.24 143 114 143 C114 119.9 114 96.8 114 73 C76.38 73 38.76 73 0 73 C0 72.67 0 72.34 0 72 C37.29 71.67 74.58 71.34 113 71 C113.33 47.9 113.66 24.8 114 1 C76.38 1 38.76 1 0 1 C0 0.67 0 0.34 0 0 Z " fill="#9D9E9D" transform="translate(263,212)"/>
<path d="M0 0 C1.65 0.33 3.3 0.66 5 1 C6.62950412 5.12168689 7.26264601 7.70700357 6 12 C5.34 12 4.68 12 4 12 C4 13.65 4 15.3 4 17 C42.94 17.33 81.88 17.66 122 18 C122 27.24 122 36.48 122 46 C4.85 46 -112.3 46 -233 46 C-233 36.76 -233 27.52 -233 18 C-193.4 18 -153.8 18 -113 18 C-112.505 24.435 -112.505 24.435 -112 31 C-74.38 31 -36.76 31 2 31 C2 27.04 2 23.08 2 19 C0.35 19 -1.3 19 -3 19 C-3 18.67 -3 18.34 -3 18 C-1.35 18 0.3 18 2 18 C1.690625 17.2575 1.38125 16.515 1.0625 15.75 C0.1905075 13.49307824 -0.47667007 11.3549847 -1 9 C0.65 9.66 2.3 10.32 4 11 C4 9.68 4 8.36 4 7 C3.34 7 2.68 7 2 7 C2.66 5.35 3.32 3.7 4 2 C1.525 2.99 1.525 2.99 -1 4 C-0.67 2.68 -0.34 1.36 0 0 Z " fill="#DFDFDF" transform="translate(275,1239)"/>
<path d="M0 0 C1.01971728 -0.00250352 2.03943456 -0.00500704 3.09005237 -0.00758642 C4.79431097 -0.00407467 4.79431097 -0.00407467 6.53299904 -0.00049198 C7.7325986 -0.00194542 8.93219817 -0.00339886 10.16814923 -0.00489634 C13.52789021 -0.00793808 16.88757604 -0.0064442 20.24731329 -0.00311839 C23.89106339 -0.00059761 27.53480889 -0.00383524 31.17855835 -0.00636172 C37.57460862 -0.00998644 43.97065046 -0.00985589 50.36670113 -0.00731456 C59.87755315 -0.00354583 69.388398 -0.00545863 78.89924997 -0.00852287 C95.88157022 -0.01380023 112.86388671 -0.01332761 129.84620732 -0.01044396 C144.70733027 -0.00793275 159.56845185 -0.00726967 174.42957497 -0.0084666 C175.90571349 -0.00858118 175.90571349 -0.00858118 177.41167299 -0.00869807 C181.40598303 -0.00900939 185.40029306 -0.00932779 189.3946031 -0.00965784 C226.89792599 -0.01271986 264.40124648 -0.00993858 301.904569 -0.00456094 C335.25610629 0.000185 368.60763976 -0.00023961 401.95917702 -0.00502193 C439.39198363 -0.01037147 476.82478812 -0.01250274 514.25759506 -0.00940967 C518.24481265 -0.00908893 522.23203023 -0.00877609 526.21924782 -0.0084666 C527.69198219 -0.00834799 527.69198219 -0.00834799 529.19446878 -0.00822697 C544.04969356 -0.00708739 558.90491681 -0.00842369 573.76014137 -0.01094615 C590.64375421 -0.01379867 607.52736269 -0.01310503 624.41097498 -0.00766541 C633.87113344 -0.00471841 643.33128249 -0.0045528 652.79144072 -0.00831159 C659.09855824 -0.01054213 665.40566815 -0.00918001 671.71278454 -0.00480682 C675.31428991 -0.00241197 678.91577647 -0.00164766 682.51728129 -0.0052128 C686.38347234 -0.00900121 690.24963313 -0.00517627 694.11582375 -0.00049198 C695.25199615 -0.00283314 696.38816855 -0.00517431 697.55877042 -0.00758642 C699.08834634 -0.00383114 699.08834634 -0.00383114 700.64882278 0 C701.53441301 0.00006776 702.42000324 0.00013552 703.33242953 0.00020533 C705.32441139 0.12534916 705.32441139 0.12534916 706.32441139 1.12534916 C706.42304299 3.41134401 706.44888206 5.70046879 706.44860989 7.98859042 C706.44988797 8.71971162 706.45116606 9.45083282 706.45248288 10.20410921 C706.45558134 12.69017856 706.45146105 15.17618613 706.44745922 17.6622535 C706.44819792 19.45582402 706.4493755 21.2493944 706.45095572 23.04296437 C706.45404602 28.01822416 706.45083213 32.99346376 706.44667759 37.96872206 C706.44326137 43.36371957 706.44561073 48.7587149 706.44725507 54.15371281 C706.44933512 63.62451508 706.44767434 73.09531109 706.44361687 82.56611264 C706.43760017 96.64901329 706.43727935 110.73190997 706.43815886 124.81481168 C706.4394751 148.50054039 706.43612974 172.18626624 706.43014145 195.87199414 C706.42422341 219.33583476 706.42036725 242.79967423 706.41928864 266.26351559 C706.41925422 266.99162122 706.41921981 267.71972685 706.41918436 268.46989629 C706.41887117 275.11980507 706.41858348 281.76971386 706.41832638 288.41962264 C706.4176869 304.95217439 706.41672753 321.48472612 706.41555119 338.01727784 C706.41549787 338.77021861 706.41544455 339.52315939 706.41538962 340.29891655 C706.41276671 376.94475585 706.40645858 413.59059439 706.39985085 450.23643315 C706.39755923 462.95685144 706.39528389 475.67726973 706.39307594 488.39768803 C706.39287052 489.58103506 706.39287052 489.58103506 706.39266095 490.7882881 C706.38631944 527.44710931 706.38259211 564.10593064 706.37954115 600.76475225 C706.37934308 603.14402797 706.37914389 605.5233037 706.37894447 607.90257942 C706.37762471 623.66987311 706.37635006 639.43716681 706.37510561 655.20446052 C706.37262897 686.57873112 706.36988728 717.95300171 706.36696356 749.32727228 C706.36682432 750.821471 706.36668527 752.31566972 706.3665464 753.80986845 C706.35883875 836.7222531 706.34630402 919.63463693 706.32441139 1052.12534916 C705.99441139 1052.12534916 705.66441139 1052.12534916 705.32441139 1052.12534916 C704.40196016 997.87606368 704.18105641 943.63893315 704.20680086 889.382567 C704.2121802 877.57324161 704.21145499 865.76391812 704.21066393 853.9545918 C704.20936531 832.17958325 704.21263222 810.40457778 704.21868134 788.62957013 C704.22463825 767.13041299 704.22846489 745.63125722 704.22953415 724.13209927 C704.22956856 723.45919344 704.22960297 722.78628761 704.22963843 722.0929907 C704.22995172 715.94513473 704.2302394 709.79727876 704.2304964 703.64942279 C704.231135 688.38089605 704.23209382 673.11236933 704.2332716 657.84384263 C704.23332492 657.14929791 704.23337823 656.4547532 704.23343317 655.73916168 C704.23604138 622.12692357 704.24234334 588.51468629 704.24897194 554.90244877 C704.25126404 543.269148 704.2535396 531.63584722 704.25574684 520.00254643 C704.25595227 518.9199859 704.25595227 518.9199859 704.25616184 517.81555546 C704.26253022 484.13521155 704.26622849 450.45486749 704.26927966 416.77452313 C704.26948022 414.56522824 704.26968252 412.35593335 704.2698854 410.14663846 C704.27222305 384.68021611 704.27440005 359.21379374 704.27653035 333.74737137 C704.28588278 223.20669572 704.30596232 112.66602444 704.32441139 2.12534916 C470.68441139 2.12534916 237.04441139 2.12534916 -3.67558861 2.12534916 C-3.67558861 348.29534916 -3.67558861 694.46534916 -3.67558861 1051.12534916 C-4.33558861 1051.45534916 -4.99558861 1051.78534916 -5.67558861 1052.12534916 C-5.69044156 965.25879294 -5.70523178 878.39223636 -5.71793175 751.57040226 C-5.7180712 750.07394156 -5.71821065 748.57748085 -5.7183501 747.08102014 C-5.72127258 715.67223108 -5.72398932 684.263442 -5.72646829 652.85465289 C-5.72771371 637.07776417 -5.72899869 621.30087545 -5.73032105 605.52398673 C-5.7305203 603.14405283 -5.73071842 600.76411893 -5.73091649 598.38418503 C-5.73397768 561.72201911 -5.73788877 525.05985353 -5.74425316 488.39768803 C-5.74439006 487.60898635 -5.74452696 486.82028467 -5.744668 486.00768293 C-5.74688047 473.29089277 -5.74916404 460.57410262 -5.75145705 447.85731248 C-5.75805784 411.24396769 -5.76413573 374.63062316 -5.7667284 338.01727784 C-5.76678194 337.2648851 -5.76683547 336.51249237 -5.76689063 335.73729986 C-5.7680562 319.22331713 -5.76895114 302.70933439 -5.76958959 286.19535163 C-5.76985122 279.55140628 -5.77015184 272.90746094 -5.77046585 266.26351559 C-5.77049928 265.53634958 -5.77053271 264.80918357 -5.77056715 264.05998223 C-5.77166487 240.60266898 -5.77594028 217.14535761 -5.78187082 193.68804512 C-5.78799225 169.41682957 -5.79060577 145.1456163 -5.78908999 120.87439997 C-5.78832629 106.86625332 -5.79038479 92.85811352 -5.79638615 78.8499681 C-5.80011563 69.51125516 -5.80026678 60.17254674 -5.79742042 50.8338335 C-5.79590001 45.50080199 -5.7960185 40.1677835 -5.80047179 34.83475334 C-5.80448322 29.99449369 -5.80399309 25.15425736 -5.79972858 20.31399811 C-5.7990074 18.56296274 -5.80000521 16.81192573 -5.80282385 15.06089248 C-5.80638156 12.70342911 -5.80390822 10.34605092 -5.7997871 7.98859042 C-5.79994308 6.67726131 -5.80009907 5.3659322 -5.80025977 4.01486585 C-5.60017187 -0.62259241 -4.19873751 0.00032126 0 0 Z " fill="#A6A6A6" transform="translate(26.675588607788086,87.8746508359909)"/>
<path d="M0 0 C75.24 0 150.48 0 228 0 C228 0.33 228 0.66 228 1 C190.71 1 153.42 1 115 1 C115 24.43 115 47.86 115 72 C152.62 72 190.24 72 229 72 C229 72.33 229 72.66 229 73 C191.38 73 153.76 73 115 73 C115 96.1 115 119.2 115 143 C152.29 143 189.58 143 228 143 C228 143.66 228 144.32 228 145 C190.71 145 153.42 145 115 145 C115 168.76 115 192.52 115 217 C152.62 217 190.24 217 229 217 C229 217.66 229 218.32 229 219 C191.38 219 153.76 219 115 219 C115 241.77 115 264.54 115 288 C152.29 288 189.58 288 228 288 C228 288.33 228 288.66 228 289 C190.71 289 153.42 289 115 289 C115 312.43 115 335.86 115 360 C152.29 360 189.58 360 228 360 C228 360.33 228 360.66 228 361 C190.71 361 153.42 361 115 361 C115 383.77 115 406.54 115 430 C152.62 430 190.24 430 229 430 C229 430.66 229 431.32 229 432 C191.38 432 153.76 432 115 432 C115 455.43 115 478.86 115 503 C152.62 503 190.24 503 229 503 C229 503.66 229 504.32 229 505 C191.38 505 153.76 505 115 505 C115 527.44 115 549.88 115 573 C152.62 573 190.24 573 229 573 C229 573.66 229 574.32 229 575 C191.38 575 153.76 575 115 575 C115 580.94 115 586.88 115 593 C114.94103632 597.37868037 114.87292741 601.75496279 114.78125 606.1328125 C114.75905396 607.26153778 114.73685791 608.39026306 114.71398926 609.55319214 C114.64431857 613.07716355 114.57221346 616.60107988 114.5 620.125 C114.45165981 622.54817383 114.40348162 624.97135091 114.35546875 627.39453125 C114.23884324 633.2630594 114.12023186 639.13154469 114 645 C113.67 645 113.34 645 113 645 C113 621.9 113 598.8 113 575 C75.38 575 37.76 575 -1 575 C-1 574.34 -1 573.68 -1 573 C36.95 573 74.9 573 114 573 C114 550.56 114 528.12 114 505 C76.38 505 38.76 505 0 505 C0 504.34 0 503.68 0 503 C37.29 503 74.58 503 113 503 C113 479.57 113 456.14 113 432 C75.71 432 38.42 432 0 432 C0 431.34 0 430.68 0 430 C37.29 430 74.58 430 113 430 C113 407.23 113 384.46 113 361 C75.71 361 38.42 361 0 361 C0 360.67 0 360.34 0 360 C37.29 359.67 74.58 359.34 113 359 C113.33 335.9 113.66 312.8 114 289 C76.38 289 38.76 289 0 289 C0 288.67 0 288.34 0 288 C37.62 288 75.24 288 114 288 C114 265.23 114 242.46 114 219 C76.38 219 38.76 219 0 219 C0 218.34 0 217.68 0 217 C37.29 217 74.58 217 113 217 C113 193.24 113 169.48 113 145 C75.71 145 38.42 145 0 145 C0 144.34 0 143.68 0 143 C37.62 143 75.24 143 114 143 C114 119.9 114 96.8 114 73 C76.38 73 38.76 73 0 73 C0 72.67 0 72.34 0 72 C37.29 71.67 74.58 71.34 113 71 C113.33 47.9 113.66 24.8 114 1 C76.38 1 38.76 1 0 1 C0 0.67 0 0.34 0 0 Z " fill="#9B9B9B" transform="translate(263,212)"/>
<path d="M0 0 C151.14 0 302.28 0 458 0 C458 8.91 458 17.82 458 27 C493.97 27 529.94 27 567 27 C567.09135513 76.69718883 566.79663223 126.3100644 566 176 C530.36 176 494.72 176 458 176 C458 175.67 458 175.34 458 175 C493.31 175 528.62 175 565 175 C565 151.57 565 128.14 565 104 C529.69 104 494.38 104 458 104 C458 103.67 458 103.34 458 103 C493.31 103 528.62 103 565 103 C565 78.58 565 54.16 565 29 C529.03 29 493.06 29 456 29 C456 19.76 456 10.52 456 1 C305.85 1 155.7 1 1 1 C1 10.24 1 19.48 1 29 C0 30 0 30 -1.82534122 30.12304783 C-3.02966376 30.12166514 -3.02966376 30.12166514 -4.25831604 30.12025452 C-5.63609222 30.12231651 -5.63609222 30.12231651 -7.04170227 30.12442017 C-8.56515511 30.11902725 -8.56515511 30.11902725 -10.11938477 30.11352539 C-11.18266998 30.11367142 -12.2459552 30.11381744 -13.34146118 30.1139679 C-16.87479658 30.11326825 -20.40808 30.10547343 -23.94140625 30.09765625 C-26.38378368 30.09579225 -28.82616149 30.09436827 -31.26853943 30.09336853 C-37.71134464 30.08954189 -44.15412748 30.07971037 -50.59692383 30.06866455 C-58.3194711 30.05665973 -66.04202584 30.05204888 -73.76457977 30.04621124 C-85.50973543 30.03649869 -97.25484195 30.01734314 -109 30 C-109 54.09 -109 78.18 -109 103 C-73.36 103 -37.72 103 -1 103 C-1 103.33 -1 103.66 -1 104 C-36.64 104 -72.28 104 -109 104 C-109 127.43 -109 150.86 -109 175 C-73.36 175 -37.72 175 -1 175 C-1 175.33 -1 175.66 -1 176 C-36.64 176 -72.28 176 -109 176 C-109 199.1 -109 222.2 -109 246 C-73.36 246 -37.72 246 -1 246 C-1 246.66 -1 247.32 -1 248 C-36.64 248 -72.28 248 -109 248 C-109 271.76 -109 295.52 -109 320 C-73.36 320 -37.72 320 -1 320 C-1 320.66 -1 321.32 -1 322 C-36.64 322 -72.28 322 -109 322 C-109 344.77 -109 367.54 -109 391 C-73.36 391 -37.72 391 -1 391 C-1 391.33 -1 391.66 -1 392 C-36.64 392 -72.28 392 -109 392 C-109 415.43 -109 438.86 -109 463 C-73.36 463 -37.72 463 -1 463 C-1 463.33 -1 463.66 -1 464 C-36.64 464 -72.28 464 -109 464 C-109 486.77 -109 509.54 -109 533 C-73.36 533 -37.72 533 -1 533 C-1 533.66 -1 534.32 -1 535 C-36.64 535 -72.28 535 -109 535 C-109 558.76 -109 582.52 -109 607 C-73.36 607 -37.72 607 -1 607 C-1 607.33 -1 607.66 -1 608 C-36.64 608 -72.28 608 -109 608 C-109 630.44 -109 652.88 -109 676 C-73.36 676 -37.72 676 -1 676 C-1 676.66 -1 677.32 -1 678 C-36.64 678 -72.28 678 -109 678 C-109 701.43 -109 724.86 -109 749 C-73.36 749 -37.72 749 -1 749 C-1 749.33 -1 749.66 -1 750 C-36.64 750 -72.28 750 -109 750 C-109 767.16 -109 784.32 -109 802 C-109.33 802 -109.66 802 -110 802 C-110 546.58 -110 291.16 -110 28 C-73.7 28 -37.4 28 0 28 C0 18.76 0 9.52 0 0 Z " fill="#8C8D8C" transform="translate(149,109)"/>
<path d="M0 0 C39.6 0 79.2 0 120 0 C120 4.62 120 9.24 120 14 C158.28 14 196.56 14 236 14 C236 18.29 236 22.58 236 27 C197.39 27 158.78 27 119 27 C119 22.71 119 18.42 119 14 C79.73 14 40.46 14 0 14 C0 9.38 0 4.76 0 0 Z " fill="#0E0F0F" transform="translate(42,1257)"/>
<path d="M0 0 C0.33 0 0.66 0 1 0 C1 287.76 1 575.52 1 872 C0.67 872 0.34 872 0 872 C-0.33 773.66 -0.66 675.32 -1 574 C-36.31 574 -71.62 574 -108 574 C-108 573.34 -108 572.68 -108 572 C-72.69 572 -37.38 572 -1 572 C-1 549.56 -1 527.12 -1 504 C-36.31 504 -71.62 504 -108 504 C-108 503.34 -108 502.68 -108 502 C-72.69 502 -37.38 502 -1 502 C-1 478.57 -1 455.14 -1 431 C-36.31 431 -71.62 431 -108 431 C-108 430.34 -108 429.68 -108 429 C-72.69 429 -37.38 429 -1 429 C-1 406.23 -1 383.46 -1 360 C-36.31 360 -71.62 360 -108 360 C-108 359.67 -108 359.34 -108 359 C-72.69 359 -37.38 359 -1 359 C-1 335.57 -1 312.14 -1 288 C-36.31 288 -71.62 288 -108 288 C-108 287.34 -108 286.68 -108 286 C-72.69 286 -37.38 286 -1 286 C-1 263.56 -1 241.12 -1 218 C-36.31 218 -71.62 218 -108 218 C-108 217.34 -108 216.68 -108 216 C-72.69 216 -37.38 216 -1 216 C-1 192.24 -1 168.48 -1 144 C-36.31 144 -71.62 144 -108 144 C-108 143.34 -108 142.68 -108 142 C-72.69 142 -37.38 142 -1 142 C-1.0309375 126.9025 -1.0309375 126.9025 -1.0625 111.5 C-1.08863333 84.87077747 -0.89767292 58.25117224 -0.5 31.625 C-0.48804218 30.82395844 -0.47608437 30.02291687 -0.46376419 29.19760132 C-0.31770764 19.46492545 -0.16331604 9.73240217 0 0 Z " fill="#A4A5A5" transform="translate(715,213)"/>
<path d="M0 0 C9.24 0 18.48 0 28 0 C28 3.3 28 6.6 28 10 C84.76 10 141.52 10 200 10 C200 6.7 200 3.4 200 0 C209.9 0 219.8 0 230 0 C230 6.27 230 12.54 230 19 C154.1 19 78.2 19 0 19 C0 12.73 0 6.46 0 0 Z " fill="#F4F4F4" transform="translate(262,1120)"/>
<path d="M0 0 C0.66 0 1.32 0 2 0 C2 22.77 2 45.54 2 69 C39.62 69 77.24 69 116 69 C116 69.66 116 70.32 116 71 C78.38 71 40.76 71 2 71 C2 94.43 2 117.86 2 142 C39.62 142 77.24 142 116 142 C116 142.66 116 143.32 116 144 C78.38 144 40.76 144 2 144 C2 166.44 2 188.88 2 212 C39.62 212 77.24 212 116 212 C116 212.66 116 213.32 116 214 C78.38 214 40.76 214 2 214 C2 219.94 2 225.88 2 232 C1.94103632 236.37868037 1.87292741 240.75496279 1.78125 245.1328125 C1.75905396 246.26153778 1.73685791 247.39026306 1.71398926 248.55319214 C1.64431857 252.07716355 1.57221346 255.60107988 1.5 259.125 C1.45165981 261.54817383 1.40348162 263.97135091 1.35546875 266.39453125 C1.23884324 272.2630594 1.12023186 278.13154469 1 284 C0.67 284 0.34 284 0 284 C0 260.9 0 237.8 0 214 C-37.62 214 -75.24 214 -114 214 C-114 213.34 -114 212.68 -114 212 C-76.05 212 -38.1 212 1 212 C1 189.56 1 167.12 1 144 C-36.62 144 -74.24 144 -113 144 C-113 143.34 -113 142.68 -113 142 C-75.71 142 -38.42 142 0 142 C0 118.57 0 95.14 0 71 C-37.29 71 -74.58 71 -113 71 C-113 70.34 -113 69.68 -113 69 C-75.71 69 -38.42 69 0 69 C0 46.23 0 23.46 0 0 Z " fill="#A3A3A3" transform="translate(376,573)"/>
<path d="M0 0 C55.77 0 111.54 0 169 0 C169 2.97 169 5.94 169 9 C113.23 9 57.46 9 0 9 C0 6.03 0 3.06 0 0 Z " fill="#F9F9F9" transform="translate(291,1120)"/>
<path d="M0 0 C151.14 0 302.28 0 458 0 C458 8.91 458 17.82 458 27 C493.97 27 529.94 27 567 27 C567.09135513 76.69718883 566.79663223 126.3100644 566 176 C530.36 176 494.72 176 458 176 C458 175.67 458 175.34 458 175 C493.31 175 528.62 175 565 175 C565 151.57 565 128.14 565 104 C529.69 104 494.38 104 458 104 C458 103.67 458 103.34 458 103 C493.31 103 528.62 103 565 103 C565 78.58 565 54.16 565 29 C529.03 29 493.06 29 456 29 C456 19.76 456 10.52 456 1 C305.85 1 155.7 1 1 1 C1 10.24 1 19.48 1 29 C0 30 0 30 -1.82534122 30.12304783 C-3.02966376 30.12166514 -3.02966376 30.12166514 -4.25831604 30.12025452 C-5.63609222 30.12231651 -5.63609222 30.12231651 -7.04170227 30.12442017 C-8.56515511 30.11902725 -8.56515511 30.11902725 -10.11938477 30.11352539 C-11.18266998 30.11367142 -12.2459552 30.11381744 -13.34146118 30.1139679 C-16.87479658 30.11326825 -20.40808 30.10547343 -23.94140625 30.09765625 C-26.38378368 30.09579225 -28.82616149 30.09436827 -31.26853943 30.09336853 C-37.71134464 30.08954189 -44.15412748 30.07971037 -50.59692383 30.06866455 C-58.3194711 30.05665973 -66.04202584 30.05204888 -73.76457977 30.04621124 C-85.50973543 30.03649869 -97.25484195 30.01734314 -109 30 C-109 54.09 -109 78.18 -109 103 C-109.33 103 -109.66 103 -110 103 C-110 78.25 -110 53.5 -110 28 C-73.7 28 -37.4 28 0 28 C0 18.76 0 9.52 0 0 Z " fill="#9C9C9C" transform="translate(149,109)"/>
<path d="M0 0 C38.94 0 77.88 0 118 0 C118 3.96 118 7.92 118 12 C79.06 12 40.12 12 0 12 C0 8.04 0 4.08 0 0 Z " fill="#000000" transform="translate(43,1258)"/>
<path d="M0 0 C0.86187644 0.00092179 1.72375288 0.00184359 2.61174679 0.00279331 C4.09049282 0.00073132 4.09049282 0.00073132 5.59911251 -0.00137234 C6.68955364 0.00222294 7.77999477 0.00581821 8.90347958 0.00952244 C10.04479336 0.00937641 11.18610714 0.00923038 12.36200619 0.00907993 C16.15506512 0.00977965 19.94807565 0.01757476 23.74112606 0.02539158 C26.36286549 0.02725555 28.98460527 0.02867955 31.60634518 0.0296793 C37.81473936 0.03279232 44.02311602 0.04100531 50.23150247 0.05102879 C57.29789422 0.06219084 64.3642868 0.06770061 71.43068516 0.07272422 C85.97037266 0.08318795 100.5100454 0.10098732 115.04971981 0.12304783 C115.04971981 4.08304783 115.04971981 8.04304783 115.04971981 12.12304783 C76.10971981 12.12304783 37.16971981 12.12304783 -2.95028019 12.12304783 C-2.95028019 0.18614021 -2.95028019 0.18614021 0 0 Z " fill="#FCFCFC" transform="translate(45.95028018951416,1270.8769521713257)"/>
<path d="M0 0 C38.61 0 77.22 0 117 0 C117 3.63 117 7.26 117 11 C78.39 11 39.78 11 0 11 C0 7.37 0 3.74 0 0 Z " fill="#FDFDFD" transform="translate(279,1272)"/>
<path d="M0 0 C38.61 0 77.22 0 117 0 C117 3.63 117 7.26 117 11 C78.39 11 39.78 11 0 11 C0 7.37 0 3.74 0 0 Z " fill="#FDFDFD" transform="translate(279,1259)"/>
<path d="M0 0 C9.57 0 19.14 0 29 0 C29 5.94 29 11.88 29 18 C-8.29 18 -45.58 18 -84 18 C-84 15.36 -84 12.72 -84 10 C-56.28 10 -28.56 10 0 10 C0 6.7 0 3.4 0 0 Z " fill="#FAFAFA" transform="translate(462,1120)"/>
<path d="M0 0 C0.33 0 0.66 0 1 0 C1 14.85 1 29.7 1 45 C38.62 45 76.24 45 115 45 C115 45.66 115 46.32 115 47 C77.38 47 39.76 47 1 47 C1 69.77 1 92.54 1 116 C38.29 116 75.58 116 114 116 C114 116.33 114 116.66 114 117 C76.71 117 39.42 117 1 117 C1 140.43 1 163.86 1 188 C38.29 188 75.58 188 114 188 C114 188.33 114 188.66 114 189 C38.76 189 -36.48 189 -114 189 C-114 188.67 -114 188.34 -114 188 C-76.71 187.67 -39.42 187.34 -1 187 C-0.67 163.9 -0.34 140.8 0 117 C-37.62 117 -75.24 117 -114 117 C-114 116.67 -114 116.34 -114 116 C-76.38 116 -38.76 116 0 116 C0 93.23 0 70.46 0 47 C-37.62 47 -75.24 47 -114 47 C-114 46.34 -114 45.68 -114 45 C-76.38 45 -38.76 45 0 45 C0 30.15 0 15.3 0 0 Z " fill="#909090" transform="translate(377,384)"/>
<path d="M0 0 C3.87955441 0.02463209 5.81647142 0.49381257 8.6875 3.25 C9.3475 3.25 10.0075 3.25 10.6875 3.25 C11.0175 2.26 11.3475 1.27 11.6875 0.25 C17.2975 0.25 22.9075 0.25 28.6875 0.25 C28.6875 0.91 28.6875 1.57 28.6875 2.25 C29.3475 2.25 30.0075 2.25 30.6875 2.25 C30.6875 1.59 30.6875 0.93 30.6875 0.25 C32.0075 0.25 33.3275 0.25 34.6875 0.25 C35.1825 4.21 35.1825 4.21 35.6875 8.25 C36.21859375 7.6725 36.7496875 7.095 37.296875 6.5 C38.00328125 5.7575 38.7096875 5.015 39.4375 4.25 C40.13359375 3.5075 40.8296875 2.765 41.546875 2 C43.6875 0.25 43.6875 0.25 47.6875 0.25 C46.19652342 4.0452131 43.93049151 5.86042731 40.6875 8.25 C42.45730402 12.08171162 44.84351771 15.1463861 47.4453125 18.4453125 C48.6875 20.25 48.6875 20.25 48.6875 22.25 C45.7866395 21.89701919 44.79233324 21.36271704 42.765625 19.18359375 C42.16234375 18.35988281 41.5590625 17.53617188 40.9375 16.6875 C40.32390625 15.86121094 39.7103125 15.03492188 39.078125 14.18359375 C38.38976562 13.22646484 38.38976562 13.22646484 37.6875 12.25 C36.6975 12.58 35.7075 12.91 34.6875 13.25 C34.6875 16.22 34.6875 19.19 34.6875 22.25 C30.89597666 22.3367982 27.10470704 22.39032207 23.3125 22.4375 C22.23226562 22.46263672 21.15203125 22.48777344 20.0390625 22.51367188 C18.4921875 22.52817383 18.4921875 22.52817383 16.9140625 22.54296875 C15.96096191 22.5586792 15.00786133 22.57438965 14.02587891 22.59057617 C13.25421387 22.47818604 12.48254883 22.3657959 11.6875 22.25 C11.0275 21.26 10.3675 20.27 9.6875 19.25 C9.11 19.58 8.5325 19.91 7.9375 20.25 C5.6875 21.25 5.6875 21.25 1.6875 21.25 C2.3475 22.9 3.0075 24.55 3.6875 26.25 C1.6875 28.25 1.6875 28.25 -0.9375 28.375 C-1.72125 28.33375 -2.505 28.2925 -3.3125 28.25 C-3.3125 27.59 -3.3125 26.93 -3.3125 26.25 C-1.9925 26.25 -0.6725 26.25 0.6875 26.25 C0.6875 25.59 0.6875 24.93 0.6875 24.25 C0.0275 24.25 -0.6325 24.25 -1.3125 24.25 C-5.78757512 20.23390695 -8.97673109 16.88818427 -9.75 10.8125 C-8.97861653 4.53123459 -6.34573369 0.12462979 0 0 Z " fill="#E9E9E9" transform="translate(89.3125,1198.75)"/>
<path d="M0 0 C75.57 0 151.14 0 229 0 C229 0.33 229 0.66 229 1 C191.38 1 153.76 1 115 1 C115 37.63 115 74.26 115 112 C152.62 112 190.24 112 229 112 C228.67 112.66 228.34 113.32 228 114 C218.43 114 208.86 114 199 114 C199 117.3 199 120.6 199 124 C195.37 124 191.74 124 188 124 C188 123.67 188 123.34 188 123 C190.97 123 193.94 123 197 123 C197 120.03 197 117.06 197 114 C195.74412283 114.00138269 195.74412283 114.00138269 194.46287441 114.00279331 C173.93949789 114.02503222 153.41612349 114.04150005 132.89273739 114.05181217 C122.96714275 114.05693361 113.04155622 114.0638955 103.1159668 114.07543945 C94.44873774 114.08551493 85.78151456 114.09188347 77.11427981 114.09408849 C72.5396947 114.09537415 67.96512642 114.09831962 63.3905468 114.10573006 C41.57141978 114.13974092 19.80269412 113.8885333 -2 113 C-2 112.67 -2 112.34 -2 112 C35.95 112 73.9 112 113 112 C113 75.37 113 38.74 113 1 C75.71 1 38.42 1 0 1 C0 0.67 0 0.34 0 0 Z " fill="#BFBFBF" transform="translate(263,1006)"/>
<path d="M0 0 C0.33 0 0.66 0 1 0 C1 165.99 1 331.98 1 503 C0.67 503 0.34 503 0 503 C-0.12810039 462.75332681 -0.25555956 422.50665163 -0.38218227 382.25997376 C-0.397199 377.48711791 -0.41222094 372.71426207 -0.42724609 367.94140625 C-0.43023671 366.9913867 -0.43322732 366.04136716 -0.43630856 365.06255914 C-0.48447437 349.76579512 -0.53305965 334.46903246 -0.58180541 319.17227028 C-0.63197248 303.42649539 -0.68167613 287.68071907 -0.73096704 271.93494141 C-0.7612917 262.25235608 -0.79195968 252.56977198 -0.82309544 242.88718922 C-0.84453525 236.20897721 -0.865517 229.53076385 -0.88616979 222.85254936 C-0.89997083 218.39462318 -0.91410124 213.93669841 -0.92888939 209.47877538 C-0.99904758 187.65226351 -1 165.82684816 -1 144 C-36.31 144 -71.62 144 -108 144 C-108 143.34 -108 142.68 -108 142 C-72.69 142 -37.38 142 -1 142 C-1.0309375 126.9025 -1.0309375 126.9025 -1.0625 111.5 C-1.08863333 84.87077747 -0.89767292 58.25117224 -0.5 31.625 C-0.48804218 30.82395844 -0.47608437 30.02291687 -0.46376419 29.19760132 C-0.31770764 19.46492545 -0.16331604 9.73240217 0 0 Z " fill="#B2B2B2" transform="translate(715,213)"/>
<path d="M0 0 C0.66 0 1.32 0 2 0 C2 22.77 2 45.54 2 69 C39.62 69 77.24 69 116 69 C116 69.66 116 70.32 116 71 C78.38 71 40.76 71 2 71 C2.03951248 91.37306028 2.03951248 91.37306028 2.09008789 111.74609375 C2.09300992 114.30989541 2.0955578 116.87369753 2.09765625 119.4375 C2.10277222 120.75685547 2.10788818 122.07621094 2.11315918 123.43554688 C2.11375343 129.72033807 1.99271073 135.78954674 1 142 C0.67 142 0.34 142 0 142 C0 118.57 0 95.14 0 71 C-37.29 71 -74.58 71 -113 71 C-113 70.34 -113 69.68 -113 69 C-75.71 69 -38.42 69 0 69 C0 46.23 0 23.46 0 0 Z " fill="#B0B0B0" transform="translate(376,573)"/>
<path d="M0 0 C3.72828975 0.60870037 4.77094829 1.55371923 7.0625 4.5 C8.3125 6.75 8.3125 6.75 9.0625 8.5 C9.51625 7.365625 9.97 6.23125 10.4375 5.0625 C12.0625 1.5 12.0625 1.5 14.0625 0.5 C16.9375 0.125 16.9375 0.125 20.0625 0.5 C22.82288417 2.67925066 23.89256785 4.35248068 24.41015625 7.84765625 C24.58815561 12.9786814 24.36164199 17.34946653 21.0625 21.5 C17.5625 22.5625 17.5625 22.5625 14.0625 22.5 C12.125 21.1875 12.125 21.1875 11.0625 19.5 C11.0625 18.84 11.0625 18.18 11.0625 17.5 C9.4125 17.5 7.7625 17.5 6.0625 17.5 C5.753125 18.139375 5.44375 18.77875 5.125 19.4375 C4.0625 21.5 4.0625 21.5 3.0625 22.5 C-0.375 22.3125 -0.375 22.3125 -3.9375 21.5 C-6.33389271 18.22441127 -6.23638805 14.95654043 -6.25 11 C-6.26675781 9.8759375 -6.28351563 8.751875 -6.30078125 7.59375 C-5.76629117 3.04196354 -4.63065388 0.78819641 0 0 Z " fill="#1A1A19" transform="translate(192.9375,1198.5)"/>
<path d="M0 0 C3.02508145 1.73602105 5.41790069 3.83580137 7 7 C7.55258891 12.03671207 7.53929549 15.92140903 5.25 20.5 C2.01399734 24.09555851 0.40873449 24.81738627 -4.375 25.4375 C-9.1853299 24.85694294 -10.61392593 23.38607407 -14 20 C-15.98141781 16.03716439 -15.55820645 11.30789762 -15 7 C-11.7590023 0.73568355 -6.81400298 -1.16305802 0 0 Z " fill="#F1F1F1" transform="translate(686,1277)"/>
<path d="M0 0 C3.87955441 0.02463209 5.81647142 0.49381257 8.6875 3.25 C9.3475 3.25 10.0075 3.25 10.6875 3.25 C11.3475 2.26 12.0075 1.27 12.6875 0.25 C12.6875 7.51 12.6875 14.77 12.6875 22.25 C11.6975 21.26 10.7075 20.27 9.6875 19.25 C9.11 19.58 8.5325 19.91 7.9375 20.25 C5.6875 21.25 5.6875 21.25 1.6875 21.25 C2.3475 22.9 3.0075 24.55 3.6875 26.25 C1.6875 28.25 1.6875 28.25 -0.9375 28.375 C-1.72125 28.33375 -2.505 28.2925 -3.3125 28.25 C-3.3125 27.59 -3.3125 26.93 -3.3125 26.25 C-1.9925 26.25 -0.6725 26.25 0.6875 26.25 C0.6875 25.59 0.6875 24.93 0.6875 24.25 C0.0275 24.25 -0.6325 24.25 -1.3125 24.25 C-5.78757512 20.23390695 -8.97673109 16.88818427 -9.75 10.8125 C-8.97861653 4.53123459 -6.34573369 0.12462979 0 0 Z " fill="#F1F1F0" transform="translate(89.3125,1198.75)"/>
<path d="M0 0 C0.556875 0.185625 1.11375 0.37125 1.6875 0.5625 C4.399133 1.07551165 6.34371039 0.6640724 9 0 C8.67 1.65 8.34 3.3 8 5 C8.598125 5.2475 9.19625 5.495 9.8125 5.75 C12.44496795 7.2542674 13.5540968 8.32507908 15 11 C15.56172694 15.33332214 15.29780107 17.45574287 13.1875 21.3125 C10.45065849 24.67490529 8.97050363 25.89216626 4.625 26.375 C0.4365615 25.94171326 -1.06240039 24.93759961 -4 22 C-5.96182682 18.07634637 -5.48380531 13.27785746 -5 9 C-3.0625 6.625 -3.0625 6.625 -1 5 C-0.20318682 2.35815459 -0.20318682 2.35815459 0 0 Z " fill="#303130" transform="translate(48,1195)"/>
<path d="M0 0 C7.11823309 -0.03604444 14.2364467 -0.0651781 21.35474807 -0.0836978 C24.8089175 -0.09278057 28.2629962 -0.10483898 31.7171154 -0.12586975 C35.3880955 -0.14644967 39.05888971 -0.15454172 42.72991943 -0.15917969 C43.76612238 -0.16791107 44.80232533 -0.17664246 45.86992836 -0.18563843 C58.76330963 -0.16641438 69.29582743 2.44099937 79.54412842 10.33496094 C81.23162842 12.05371094 81.23162842 12.05371094 81.23162842 15.05371094 C80.32412842 14.16683594 79.41662842 13.27996094 78.48162842 12.36621094 C71.34696805 6.2216667 61.76606429 2.94547013 52.39969921 2.91504574 C51.44922716 2.90957129 50.49875512 2.90409685 49.51948088 2.89845651 C48.48348905 2.89747841 47.44749722 2.8965003 46.38011169 2.89549255 C45.27328043 2.89055458 44.16644917 2.8856166 43.02607757 2.88052899 C39.31033497 2.86514795 35.59460966 2.85679167 31.87884521 2.84838867 C29.21804045 2.83881063 26.55723979 2.82884383 23.8964386 2.81838989 C18.16432603 2.79664533 12.43221113 2.77849346 6.70007896 2.76278496 C-1.58761096 2.74006793 -9.8752755 2.71192765 -18.16294386 2.68246568 C-31.60928941 2.63481224 -45.05564535 2.59154197 -58.50201416 2.55102539 C-71.56354582 2.51165902 -84.62506825 2.47023006 -97.68658447 2.42602539 C-98.49175966 2.42330112 -99.29693485 2.42057685 -100.12650929 2.41777002 C-104.16585547 2.40409035 -108.20520151 2.39037012 -112.24454749 2.37662971 C-145.75246979 2.26270025 -179.26041137 2.15588309 -212.76837158 2.05371094 C-212.76837158 1.72371094 -212.76837158 1.39371094 -212.76837158 1.05371094 C-187.55344962 0.92126164 -162.33851791 0.79081631 -137.12357426 0.66255951 C-125.40759365 0.60292229 -113.69161674 0.54268866 -101.97564697 0.48095703 C-74.49354668 0.33644715 -47.01143165 0.20398169 -19.52918231 0.09109783 C-13.01943604 0.06405303 -6.50971795 0.03311554 0 0 Z " fill="#8F8F8F" transform="translate(458.76837158203125,159.9462890625)"/>
<path d="M0 0 C1.65 0 3.3 0 5 0 C5 9.9 5 19.8 5 30 C3.68 30 2.36 30 1 30 C0.67 22.74 0.34 15.48 0 8 C-4.26511313 9.70604525 -6.61418999 11.09787714 -10 14 C-9.38126885 17.747245 -7.67296908 20.09921357 -5.4375 23.125 C-2 27.78672032 -2 27.78672032 -2 30 C-3.32 30 -4.64 30 -6 30 C-7.66796875 28.13671875 -7.66796875 28.13671875 -9.1875 25.6875 C-9.69667969 24.88699219 -10.20585938 24.08648438 -10.73046875 23.26171875 C-12 21 -12 21 -13 18 C-13.66 18 -14.32 18 -15 18 C-15.66 21.96 -16.32 25.92 -17 30 C-18.32 30 -19.64 30 -21 30 C-21 22.08 -21 14.16 -21 6 C-19.68 5.67 -18.36 5.34 -17 5 C-16.67 8.3 -16.34 11.6 -16 15 C-15.34773437 14.278125 -14.69546875 13.55625 -14.0234375 12.8125 C-13.14945313 11.884375 -12.27546875 10.95625 -11.375 10 C-10.08722656 8.6078125 -10.08722656 8.6078125 -8.7734375 7.1875 C-5.53433488 4.63271483 -4.02051399 4.52838546 0 5 C0 3.35 0 1.7 0 0 Z " fill="#282726" transform="translate(717,1272)"/>
<path d="M0 0 C1.65 0.33 3.3 0.66 5 1 C6.62950412 5.12168689 7.26264601 7.70700357 6 12 C5.34 12 4.68 12 4 12 C4 13.65 4 15.3 4 17 C7.63 17.33 11.26 17.66 15 18 C15 18.33 15 18.66 15 19 C11.37 19 7.74 19 4 19 C4 22.96 4 26.92 4 31 C41.62 31 79.24 31 118 31 C118 31.33 118 31.66 118 32 C80.38 32 42.76 32 4 32 C4 36.29 4 40.58 4 45 C3.67 45 3.34 45 3 45 C3 40.71 3 36.42 3 32 C-34.95 32 -72.9 32 -112 32 C-112 31.67 -112 31.34 -112 31 C-74.38 31 -36.76 31 2 31 C2 27.04 2 23.08 2 19 C0.35 19 -1.3 19 -3 19 C-3 18.67 -3 18.34 -3 18 C-1.35 18 0.3 18 2 18 C1.690625 17.2575 1.38125 16.515 1.0625 15.75 C0.1905075 13.49307824 -0.47667007 11.3549847 -1 9 C0.65 9.66 2.3 10.32 4 11 C4 9.68 4 8.36 4 7 C3.34 7 2.68 7 2 7 C2.66 5.35 3.32 3.7 4 2 C2.35 2.66 0.7 3.32 -1 4 C-0.67 2.68 -0.34 1.36 0 0 Z " fill="#B8B8B8" transform="translate(275,1239)"/>
<path d="M0 0 C2.413125 -0.04125 4.82625 -0.0825 7.3125 -0.125 C8.06829346 -0.14320801 8.82408691 -0.16141602 9.6027832 -0.18017578 C13.31447871 -0.21099473 14.83533664 -0.10977558 18 2 C18.39507893 6.34586828 18.45331002 8.32003497 16 12 C15.01 12 14.02 12 13 12 C13.5053125 12.69867187 14.010625 13.39734375 14.53125 14.1171875 C15.1809375 15.02726562 15.830625 15.93734375 16.5 16.875 C17.1496875 17.77992187 17.799375 18.68484375 18.46875 19.6171875 C20 22 20 22 20 24 C17.68359375 23.78125 17.68359375 23.78125 15 23 C13.41015625 20.96875 13.41015625 20.96875 12.0625 18.5 C9.78426524 14.62158225 9.78426524 14.62158225 5.625 12.9375 C4.75875 12.958125 3.8925 12.97875 3 13 C3 16.63 3 20.26 3 24 C2.01 24 1.02 24 0 24 C0 16.08 0 8.16 0 0 Z " fill="#110F0F" transform="translate(649,1278)"/>
<path d="M0 0 C2.33982732 3.67778713 2.21027639 6.77219047 2.13525391 11.06347656 C2.12558279 11.77763607 2.11591167 12.49179558 2.10594749 13.22759628 C2.07240853 15.53220766 2.02477096 17.83627873 1.9765625 20.140625 C1.95373904 21.56622887 1.93184246 22.99184789 1.91088867 24.41748047 C1.82682367 29.69517783 1.72482831 34.97257727 1.625 40.25 C1.41875 52.0475 1.2125 63.845 1 76 C-34.64 76 -70.28 76 -107 76 C-107 75.67 -107 75.34 -107 75 C-71.69 75 -36.38 75 0 75 C0 51.57 0 28.14 0 4 C-35.31 4 -70.62 4 -107 4 C-107 3.67 -107 3.34 -107 3 C-71.69 3 -36.38 3 0 3 C0 2.01 0 1.02 0 0 Z " fill="#7D7D7E" transform="translate(714,209)"/>
<path d="M0 0 C0.77923828 0.00451172 1.55847656 0.00902344 2.36132812 0.01367188 C4.26175268 0.02533092 6.16213706 0.04326123 8.0625 0.0625 C8.0625 2.7025 8.0625 5.3425 8.0625 8.0625 C28.8525 8.0625 49.6425 8.0625 71.0625 8.0625 C71.0625 8.3925 71.0625 8.7225 71.0625 9.0625 C59.75366765 9.10876898 48.44485769 9.14434146 37.13595009 9.16612434 C31.88519582 9.17657717 26.63450615 9.19076363 21.38378906 9.21337891 C16.31988258 9.23505395 11.25603836 9.24705732 6.19208908 9.25225449 C4.25671788 9.25595987 2.32135021 9.26319519 0.3860054 9.27396011 C-2.31744597 9.28840414 -5.02063756 9.29048093 -7.72412109 9.28955078 C-8.53044479 9.29674133 -9.33676849 9.30393188 -10.16752625 9.31134033 C-15.70939568 9.29060432 -15.70939568 9.29060432 -17.9375 7.0625 C-17.2775 5.0825 -16.6175 3.1025 -15.9375 1.0625 C-10.57260405 0.15766363 -5.43432543 -0.06053662 0 0 Z " fill="#F0F0F0" transform="translate(369.9375,1119.9375)"/>
<path d="M0 0 C3.02508145 1.73602105 5.41790069 3.83580137 7 7 C7.55258891 12.03671207 7.53929549 15.92140903 5.25 20.5 C2.01399734 24.09555851 0.40873449 24.81738627 -4.375 25.4375 C-9.1853299 24.85694294 -10.61392593 23.38607407 -14 20 C-15.98141781 16.03716439 -15.55820645 11.30789762 -15 7 C-11.7590023 0.73568355 -6.81400298 -1.16305802 0 0 Z M-12 8 C-12.71284931 11.15364536 -12.70049143 13.84494103 -12 17 C-10.14358251 20.2739971 -10.14358251 20.2739971 -7 22 C-2.78039403 22.14805635 -0.79977062 21.63981649 2.5 19 C4.6059347 14.78813059 4.43757326 11.4539842 3 7 C0.57570422 4.23899647 -0.93825646 3.2388923 -4.5 2.4375 C-8.35408696 3.30466957 -9.71716318 4.80402845 -12 8 Z " fill="#201F1F" transform="translate(686,1277)"/>
<path d="M0 0 C1.32 0.33 2.64 0.66 4 1 C4.33 3.97 4.66 6.94 5 10 C6.31554021 8.71142987 7.62734097 7.41904109 8.9375 6.125 C9.66839844 5.40570312 10.39929688 4.68640625 11.15234375 3.9453125 C13.05667999 2.12972808 13.05667999 2.12972808 14 0 C15.65 0 17.3 0 19 0 C19 0.66 19 1.32 19 2 C17.25 3.7265625 17.25 3.7265625 15 5.625 C14.2575 6.25664063 13.515 6.88828125 12.75 7.5390625 C11.88375 8.26222656 11.88375 8.26222656 11 9 C11.61873115 12.747245 13.32703092 15.09921357 15.5625 18.125 C19 22.78672032 19 22.78672032 19 25 C17.68 25 16.36 25 15 25 C13.078125 22.8828125 13.078125 22.8828125 11.25 20.125 C10.63640625 19.22007813 10.0228125 18.31515625 9.390625 17.3828125 C8 15 8 15 8 13 C5.87856267 13.8955794 5.87856267 13.8955794 4 16 C3.33825175 18.9858081 3.12794052 21.94861869 3 25 C2.01 25 1.02 25 0 25 C0 16.75 0 8.5 0 0 Z " fill="#0F0F0F" transform="translate(627,1277)"/>
<path d="M0 0 C5.28 0.33 10.56 0.66 16 1 C16 1.33 16 1.66 16 2 C11.71 2 7.42 2 3 2 C3 9.92 3 17.84 3 26 C2.01 26 1.02 26 0 26 C-1.5 24.171875 -1.5 24.171875 -3 21.75 C-5.20672333 18.22965362 -5.20672333 18.22965362 -7.75 14.953125 C-9 13 -9 13 -8.87109375 10.953125 C-7.88521199 8.74262777 -6.79803316 7.43036951 -5.0625 5.75 C-4.53785156 5.22921875 -4.01320313 4.7084375 -3.47265625 4.171875 C-2 3 -2 3 0 3 C0 2.01 0 1.02 0 0 Z " fill="#DDDCDC" transform="translate(646,1276)"/>
<path d="M0 0 C1.9375 1 1.9375 1 3 3 C3.29941766 6.77266246 3.28253281 9.77569116 2.4375 13.4375 C1 15 1 15 -2.375 16 C-6 16 -6 16 -8.4375 14.625 C-10.6547853 10.89996069 -10.8668959 7.24076104 -10 3 C-7.19441721 -0.76031843 -4.51528859 -0.48378092 0 0 Z " fill="#F2F2F1" transform="translate(56,1202)"/>
<path d="M0 0 C3.9447294 0.01258287 4.57038444 0.22837506 7.8125 2.875 C8.451875 3.7 9.09125 4.525 9.75 5.375 C7.875 6 7.875 6 5.75 6.375 C5.09 5.715 4.43 5.055 3.75 4.375 C0.16656024 4.20822718 0.16656024 4.20822718 -3.25 4.375 C-4.41983345 6.7146669 -4.4161241 8.20891527 -4.4375 10.8125 C-4.45167969 11.59496094 -4.46585937 12.37742187 -4.48046875 13.18359375 C-4.39086064 15.66705987 -4.39086064 15.66705987 -2.25 18.375 C0.70746492 18.95845476 0.70746492 18.95845476 3.75 18.375 C5.66256712 16.49422127 5.66256712 16.49422127 6.75 14.375 C7.74 14.705 8.73 15.035 9.75 15.375 C8.59826645 17.84300047 7.70216435 19.42283565 5.75 21.375 C4.43 21.375 3.11 21.375 1.75 21.375 C2.41 23.025 3.07 24.675 3.75 26.375 C1.75 28.375 1.75 28.375 -0.875 28.5 C-1.65875 28.45875 -2.4425 28.4175 -3.25 28.375 C-3.25 27.715 -3.25 27.055 -3.25 26.375 C-1.93 26.375 -0.61 26.375 0.75 26.375 C0.75 25.715 0.75 25.055 0.75 24.375 C0.09 24.375 -0.57 24.375 -1.25 24.375 C-5.72507512 20.35890695 -8.91423109 17.01318427 -9.6875 10.9375 C-8.92659411 4.74155207 -6.28319251 0.27046855 0 0 Z " fill="#292928" transform="translate(89.25,1198.625)"/>
<path d="M0 0 C4.95 0 9.9 0 15 0 C15 0.99 15 1.98 15 3 C11.04 3 7.08 3 3 3 C3 4.98 3 6.96 3 9 C6.63 9 10.26 9 14 9 C14 9.99 14 10.98 14 12 C10.37 12 6.74 12 3 12 C3 14.31 3 16.62 3 19 C7.29 19 11.58 19 16 19 C16 19.99 16 20.98 16 22 C10.72 22 5.44 22 0 22 C0 14.74 0 7.48 0 0 Z " fill="#272726" transform="translate(102,1199)"/>
<path d="M0 0 C0.33 0 0.66 0 1 0 C1 17.49 1 34.98 1 53 C-29.36 53 -59.72 53 -91 53 C-91 52.01 -91 51.02 -91 50 C-90.01 50 -89.02 50 -88 50 C-88 49.34 -88 48.68 -88 48 C-87.34 48 -86.68 48 -86 48 C-86.33 48.99 -86.66 49.98 -87 51 C-77.43 51.33 -67.86 51.66 -58 52 C-58 51.34 -58 50.68 -58 50 C-57.34 50 -56.68 50 -56 50 C-56 50.66 -56 51.32 -56 52 C-38.84 52 -21.68 52 -4 52 C-3.67 50.68 -3.34 49.36 -3 48 C-2.34 48 -1.68 48 -1 48 C-0.67 32.16 -0.34 16.32 0 0 Z " fill="#E4E4E4" transform="translate(148,1086)"/>
<path d="M0 0 C0.66 0.33 1.32 0.66 2 1 C2 7.93 2 14.86 2 22 C1.01 22.33 0.02 22.66 -1 23 C-1.48210938 22.22914062 -1.96421875 21.45828125 -2.4609375 20.6640625 C-3.09257813 19.66117188 -3.72421875 18.65828125 -4.375 17.625 C-5.00148438 16.62726563 -5.62796875 15.62953125 -6.2734375 14.6015625 C-7.89269712 11.9751981 -7.89269712 11.9751981 -10 10 C-10 8.1875 -10 8.1875 -9 6 C-6.05676165 3.24871198 -3.83835245 1.27945082 0 0 Z " fill="#F5F4F3" transform="translate(716,1279)"/>
<path d="M0 0 C0.99 0 1.98 0 3 0 C3.33 2.64 3.66 5.28 4 8 C4.53109375 7.4225 5.0621875 6.845 5.609375 6.25 C6.31578125 5.5075 7.0221875 4.765 7.75 4 C8.44609375 3.2575 9.1421875 2.515 9.859375 1.75 C12 0 12 0 16 0 C14.50902342 3.7952131 12.24299151 5.61042731 9 8 C10.76980402 11.83171162 13.15601771 14.8963861 15.7578125 18.1953125 C17 20 17 20 17 22 C14.0991395 21.64701919 13.10483324 21.11271704 11.078125 18.93359375 C10.47484375 18.10988281 9.8715625 17.28617188 9.25 16.4375 C8.63640625 15.61121094 8.0228125 14.78492188 7.390625 13.93359375 C6.93171875 13.29550781 6.4728125 12.65742187 6 12 C5.01 12.33 4.02 12.66 3 13 C3 15.97 3 18.94 3 22 C2.01 22 1.02 22 0 22 C0 14.74 0 7.48 0 0 Z " fill="#1C1C1D" transform="translate(121,1199)"/>
<path d="M0 0 C8.30222597 -0.04654862 16.60439648 -0.0819828 24.90672112 -0.10362434 C28.7627311 -0.1140165 32.61865114 -0.12809113 36.47460938 -0.15087891 C40.20288083 -0.17277165 43.9310663 -0.18460289 47.65939713 -0.18975449 C49.07459998 -0.19342099 50.48979867 -0.20057986 51.90496445 -0.21146011 C66.63274113 -0.32008419 78.48860237 1.17365318 90.3125 10.28125 C92 12 92 12 92 15 C90.63875 13.6696875 90.63875 13.6696875 89.25 12.3125 C81.34634313 5.50567715 71.38867739 2.98669789 61.19018555 2.70288086 C60.52621262 2.68322769 59.86223969 2.66357452 59.17814636 2.64332581 C56.99776472 2.57978804 54.81726898 2.52227778 52.63671875 2.46484375 C51.11927752 2.42180501 49.60184696 2.37838833 48.08442688 2.33460999 C44.10120328 2.22070443 40.11785581 2.11191932 36.13446045 2.00421143 C32.06546423 1.89327848 27.99660654 1.7774876 23.92773438 1.66210938 C15.95195028 1.4366601 7.97602871 1.21662179 0 1 C0 0.67 0 0.34 0 0 Z " fill="#B5B5B5" transform="translate(448,160)"/>
<path d="M0 0 C2.375 -0.125 2.375 -0.125 5 0 C7 2 7 2 7.265625 4.49609375 C7.26046875 5.46675781 7.2553125 6.43742187 7.25 7.4375 C7.25515625 8.40558594 7.2603125 9.37367187 7.265625 10.37109375 C7 13 7 13 5 16 C0.125 15.125 0.125 15.125 -1 14 C-1.09900199 12.02287193 -1.12970773 10.04209962 -1.125 8.0625 C-1.12757813 6.98097656 -1.13015625 5.89945313 -1.1328125 4.78515625 C-1 2 -1 2 0 0 Z " fill="#E8EAE9" transform="translate(207,1202)"/>
<path d="M0 0 C0.99 0.33 1.98 0.66 3 1 C3 4.63 3 8.26 3 12 C2.01 12.495 2.01 12.495 1 13 C1 12.01 1 11.02 1 10 C-3.29 10 -7.58 10 -12 10 C-12 7.69 -12 5.38 -12 3 C-8.04 3 -4.08 3 0 3 C0 2.01 0 1.02 0 0 Z " fill="#F5F5F3" transform="translate(117,1208)"/>
<path d="M0 0 C1.2065625 0.0309375 1.2065625 0.0309375 2.4375 0.0625 C4.12963943 3.02205861 4.73271319 5.21949917 4.75 8.625 C4.76675781 9.38941406 4.78351563 10.15382813 4.80078125 10.94140625 C4.34993687 13.57375571 3.5547294 14.4784228 1.4375 16.0625 C-0.69995922 15.81103421 -2.02175779 15.60324221 -3.5625 14.0625 C-3.6614294 11.89769203 -3.692211 9.72956215 -3.6875 7.5625 C-3.69007813 6.3765625 -3.69265625 5.190625 -3.6953125 3.96875 C-3.51786593 0.08580161 -3.51786593 0.08580161 0 0 Z " fill="#E9E9E8" transform="translate(193.5625,1201.9375)"/>
<path d="M0 0 C1.65 0.33 3.3 0.66 5 1 C6.62950412 5.12168689 7.26264601 7.70700357 6 12 C5.34 12 4.68 12 4 12 C4 13.65 4 15.3 4 17 C7.63 17.33 11.26 17.66 15 18 C15 18.33 15 18.66 15 19 C11.37 19 7.74 19 4 19 C4 22.96 4 26.92 4 31 C3.34 31 2.68 31 2 31 C2 27.04 2 23.08 2 19 C0.35 19 -1.3 19 -3 19 C-3 18.67 -3 18.34 -3 18 C-1.35 18 0.3 18 2 18 C1.690625 17.2575 1.38125 16.515 1.0625 15.75 C0.1905075 13.49307824 -0.47667007 11.3549847 -1 9 C1.475 9.99 1.475 9.99 4 11 C4 9.68 4 8.36 4 7 C3.34 7 2.68 7 2 7 C2.66 5.35 3.32 3.7 4 2 C2.35 2.66 0.7 3.32 -1 4 C-0.67 2.68 -0.34 1.36 0 0 Z " fill="#E1E1E2" transform="translate(275,1239)"/>
<path d="M0 0 C0 0.66 0 1.32 0 2 C-2.01822917 2.42317708 -4.03645833 2.84635417 -6.0546875 3.26953125 C-8.37046549 3.92308838 -8.37046549 3.92308838 -10 7 C-10.67883158 11.28611103 -10.77297306 14.85485473 -8.3125 18.5 C-5.81876259 20.1175594 -3.93785297 20.67357189 -1 21 C-1.33 21.66 -1.66 22.32 -2 23 C-6.45870674 23.52455373 -8.34887552 23.51258735 -11.9375 20.6875 C-14.62331025 16.93093484 -14.71233052 13.14136588 -14.47265625 8.63671875 C-12.98292116 0.32621307 -7.6071706 -0.89496125 0 0 Z " fill="#121312" transform="translate(685,1278)"/>
<path d="M0 0 C0.99 0 1.98 0 3 0 C3 6.27 3 12.54 3 19 C6.63 19 10.26 19 14 19 C14 19.99 14 20.98 14 22 C9.38 22 4.76 22 0 22 C0 14.74 0 7.48 0 0 Z " fill="#323231" transform="translate(65,1199)"/>
<path d="M0 0 C3.63 0 7.26 0 11 0 C10.67 0.66 10.34 1.32 10 2 C7.69 2 5.38 2 3 2 C3 4.64 3 7.28 3 10 C4.32 10.33 5.64 10.66 7 11 C7 11.66 7 12.32 7 13 C5.68 13 4.36 13 3 13 C3 16.63 3 20.26 3 24 C2.01 24 1.02 24 0 24 C0 16.08 0 8.16 0 0 Z " fill="#161616" transform="translate(649,1278)"/>
<path d="M0 0 C1.9609375 0.6640625 1.9609375 0.6640625 4 2 C4.5390625 4.4609375 4.5390625 4.4609375 4.625 7.375 C4.7573647 11.15248504 5.05870123 13.72308768 7 17 C5.35 17.33 3.7 17.66 2 18 C1.401875 17.236875 0.80375 16.47375 0.1875 15.6875 C-1.84004112 13.08664741 -1.84004112 13.08664741 -3.75 11.3125 C-5 10 -5 10 -5 8 C-4.01 7.67 -3.02 7.34 -2 7 C-0.77030122 3.48809191 -0.77030122 3.48809191 0 0 Z " fill="#EEEEEC" transform="translate(667,1282)"/>
<path d="M0 0 C4.55555556 0.55555556 4.55555556 0.55555556 6 2 C6.4664723 9.2303207 6.4664723 9.2303207 4.75 12.0625 C3 13 3 13 0.875 12.8125 C-1 12 -1 12 -2 10 C-2.16796875 8.125 -2.16796875 8.125 -2.1875 6 C-2.20167969 5.29875 -2.21585938 4.5975 -2.23046875 3.875 C-2 2 -2 2 0 0 Z " fill="#242424" transform="translate(41,1239)"/>
<path d="M0 0 C1.43655854 -0.08131463 2.8744483 -0.13933559 4.3125 -0.1875 C5.51326172 -0.23970703 5.51326172 -0.23970703 6.73828125 -0.29296875 C9 0 9 0 10.80859375 1.37890625 C12 3 12 3 11.75 5.125 C11 7 11 7 10 8 C8.31391034 8.07205511 6.62499341 8.08386068 4.9375 8.0625 C4.01839844 8.05347656 3.09929688 8.04445313 2.15234375 8.03515625 C1.44207031 8.02355469 0.73179687 8.01195312 0 8 C0 5.36 0 2.72 0 0 Z " fill="#E4E3E4" transform="translate(652,1280)"/>
<path d="M0 0 C0.99 0 1.98 0 3 0 C3.06058594 0.83144531 3.12117187 1.66289063 3.18359375 2.51953125 C3.26738281 3.60621094 3.35117187 4.69289063 3.4375 5.8125 C3.55931641 7.43091797 3.55931641 7.43091797 3.68359375 9.08203125 C3.90212461 12.05989905 3.90212461 12.05989905 5 15 C4.87890625 17.26171875 4.87890625 17.26171875 4.5625 19.6875 C4.46066406 20.49574219 4.35882812 21.30398438 4.25390625 22.13671875 C4.12822266 23.05904297 4.12822266 23.05904297 4 24 C2.68 24 1.36 24 0 24 C0 16.08 0 8.16 0 0 Z " fill="#2F2E2C" transform="translate(696,1278)"/>
<path d="M0 0 C0 7.26 0 14.52 0 22 C-0.99 22 -1.98 22 -3 22 C-3.33 16.72 -3.66 11.44 -4 6 C-5.98 6.99 -5.98 6.99 -8 8 C-7.32253522 3.25774652 -4.9532836 0 0 0 Z " fill="#313131" transform="translate(181,1199)"/>
<path d="M0 0 C0.33 0 0.66 0 1 0 C1 1.98 1 3.96 1 6 C4.63 6 8.26 6 12 6 C12 6.99 12 7.98 12 9 C8.37 9 4.74 9 1 9 C1 11.31 1 13.62 1 16 C4.96 16 8.92 16 13 16 C13 16.66 13 17.32 13 18 C8.38 18 3.76 18 -1 18 C-0.505 9.09 -0.505 9.09 0 0 Z " fill="#161615" transform="translate(104,1202)"/>
<path d="M0 0 C0 7.26 0 14.52 0 22 C-0.99 22 -1.98 22 -3 22 C-3 16.72 -3 11.44 -3 6 C-4.65 6.33 -6.3 6.66 -8 7 C-6.56389554 2.69168661 -4.72692072 0 0 0 Z " fill="#232323" transform="translate(157,1199)"/>
<path d="M0 0 C2.31859494 3.65782954 2.21089685 6.70541762 2.13525391 10.97167969 C2.12579239 11.6647673 2.11633087 12.35785492 2.10658264 13.07194519 C2.07299055 15.35552851 2.02485293 17.63855917 1.9765625 19.921875 C1.95038649 21.50798105 1.92512019 23.09410236 1.90072632 24.68023682 C1.83416226 28.84954164 1.75525085 33.01852467 1.67376709 37.18756104 C1.59276203 41.44392572 1.52343486 45.70047884 1.453125 49.95703125 C1.31351265 58.30491625 1.16085567 66.65249745 1 75 C0.67 75 0.34 75 0 75 C0 51.57 0 28.14 0 4 C-1.32 3.67 -2.64 3.34 -4 3 C-2.68 3 -1.36 3 0 3 C0 2.01 0 1.02 0 0 Z " fill="#969696" transform="translate(714,209)"/>
<path d="M0 0 C0.99 0.33 1.98 0.66 3 1 C1.84826645 3.46800047 0.95216435 5.04783565 -1 7 C-2.32 7 -3.64 7 -5 7 C-4.34 8.65 -3.68 10.3 -3 12 C-5 14 -5 14 -7.625 14.125 C-8.40875 14.08375 -9.1925 14.0425 -10 14 C-10 13.34 -10 12.68 -10 12 C-8.68 12 -7.36 12 -6 12 C-6 11.34 -6 10.68 -6 10 C-6.66 10 -7.32 10 -8 10 C-9.70680947 8.37446717 -11.37660195 6.70884005 -13 5 C-12.67 4.01 -12.34 3.02 -12 2 C-10.515 2.99 -10.515 2.99 -9 4 C-6 4.5 -6 4.5 -3 4 C-1.08743288 2.11922127 -1.08743288 2.11922127 0 0 Z " fill="#070707" transform="translate(96,1213)"/>
<path d="M0 0 C0.99 0 1.98 0 3 0 C3 8.25 3 16.5 3 25 C2.01 25 1.02 25 0 25 C0 16.75 0 8.5 0 0 Z " fill="#181818" transform="translate(627,1277)"/>
<path d="M0 0 C0.99 0 1.98 0 3 0 C3 7.92 3 15.84 3 24 C2.01 24 1.02 24 0 24 C0 16.08 0 8.16 0 0 Z " fill="#181816" transform="translate(718,1278)"/>
<path d="M0 0 C0.556875 0.185625 1.11375 0.37125 1.6875 0.5625 C4.399133 1.07551165 6.34371039 0.6640724 9 0 C8.67 1.65 8.34 3.3 8 5 C9.32 5.66 10.64 6.32 12 7 C12 7.99 12 8.98 12 10 C11.505 9.67 11.01 9.34 10.5 9 C6.90909106 7.56363642 3.85543873 7.87148538 0 8 C0 5.36 0 2.72 0 0 Z " fill="#1B1C1B" transform="translate(48,1195)"/>
<path d="M0 0 C1.65 0 3.3 0 5 0 C5 9.9 5 19.8 5 30 C4.67 30 4.34 30 4 30 C4 22.08 4 14.16 4 6 C3.01 6 2.02 6 1 6 C0.67 6.66 0.34 7.32 0 8 C-3 7 -3 7 -6 5 C-4.02 5 -2.04 5 0 5 C0 3.35 0 1.7 0 0 Z " fill="#898988" transform="translate(717,1272)"/>
<path d="M0 0 C0.66 0 1.32 0 2 0 C2.19551338 1.60320974 2.38111983 3.20762986 2.5625 4.8125 C2.66691406 5.70582031 2.77132813 6.59914063 2.87890625 7.51953125 C3 10 3 10 2 13 C1.34 13 0.68 13 0 13 C0 12.01 0 11.02 0 10 C-1.98 10 -3.96 10 -6 10 C-4.34643078 6.41726669 -2.32019297 3.19026533 0 0 Z " fill="#4E4E4E" transform="translate(338,1239)"/>
<path d="M0 0 C1.65 0 3.3 0 5 0 C5 0.66 5 1.32 5 2 C3.3203125 3.62109375 3.3203125 3.62109375 1.125 5.4375 C-1.46193722 7.58400884 -3.11184374 9.16776562 -5 12 C-5.33 11.34 -5.66 10.68 -6 10 C-6.66 10.66 -7.32 11.32 -8 12 C-8.99 12 -9.98 12 -11 12 C-11 8.37 -11 4.74 -11 1 C-10.67 1 -10.34 1 -10 1 C-9.67 3.97 -9.34 6.94 -9 10 C-7.68445979 8.71142987 -6.37265903 7.41904109 -5.0625 6.125 C-4.33160156 5.40570312 -3.60070312 4.68640625 -2.84765625 3.9453125 C-0.94332001 2.12972808 -0.94332001 2.12972808 0 0 Z " fill="#323132" transform="translate(641,1277)"/>
<path d="M0 0 C1.65 0.33 3.3 0.66 5 1 C5.75 3.25 5.75 3.25 6 6 C4.0625 8.3125 4.0625 8.3125 2 10 C3.32 10.33 4.64 10.66 6 11 C6 11.66 6 12.32 6 13 C3.03 13 0.06 13 -3 13 C-1.19097041 9.38194081 0.23635839 7.76364161 3 5 C3.33 4.01 3.66 3.02 4 2 C2.68 2 1.36 2 0 2 C0 2.66 0 3.32 0 4 C-0.66 4 -1.32 4 -2 4 C-1.34 2.68 -0.68 1.36 0 0 Z " fill="#333334" transform="translate(161,1239)"/>
<path d="M0 0 C2.31 0 4.62 0 7 0 C7 0.66 7 1.32 7 2 C5.35 2 3.7 2 2 2 C2 2.66 2 3.32 2 4 C2.9590625 4.2165625 2.9590625 4.2165625 3.9375 4.4375 C6 5 6 5 7 6 C7.1875 8.4375 7.1875 8.4375 7 11 C6.34 11.66 5.68 12.32 5 13 C2.375 12.625 2.375 12.625 0 12 C-0.33 11.01 -0.66 10.02 -1 9 C0.98 9.66 2.96 10.32 5 11 C5 9.35 5 7.7 5 6 C3.35 6.33 1.7 6.66 0 7 C0 4.69 0 2.38 0 0 Z " fill="#131313" transform="translate(393,1239)"/>
<path d="M0 0 C1.65 0.33 3.3 0.66 5 1 C6.62950412 5.12168689 7.26264601 7.70700357 6 12 C4.02 12.33 2.04 12.66 0 13 C-0.33 11.68 -0.66 10.36 -1 9 C1.475 9.99 1.475 9.99 4 11 C4 9.68 4 8.36 4 7 C3.34 7 2.68 7 2 7 C2.66 5.35 3.32 3.7 4 2 C2.35 2.66 0.7 3.32 -1 4 C-0.67 2.68 -0.34 1.36 0 0 Z " fill="#303030" transform="translate(275,1239)"/>
<path d="M0 0 C0.66 0 1.32 0 2 0 C1.37798054 2.54242904 0.75248241 5.08391875 0.125 7.625 C-0.04902344 8.33785156 -0.22304687 9.05070312 -0.40234375 9.78515625 C-1.42854338 13.92796216 -2.58790729 17.96726678 -4 22 C-4.66 22 -5.32 22 -6 22 C-5.50253785 15.65735753 -4.61508479 4.61508479 0 0 Z " fill="#333333" transform="translate(168,1199)"/>
<path d="M0 0 C1.65 0.33 3.3 0.66 5 1 C5.22162329 2.62324086 5.42689803 4.248721 5.625 5.875 C5.74101562 6.77992187 5.85703125 7.68484375 5.9765625 8.6171875 C5.98429688 9.40351562 5.99203125 10.18984375 6 11 C5.34 11.66 4.68 12.32 4 13 C1.375 12.625 1.375 12.625 -1 12 C-1.33 11.01 -1.66 10.02 -2 9 C-1.34 9 -0.68 9 0 9 C0 9.66 0 10.32 0 11 C0.99 10.67 1.98 10.34 3 10 C3.33 9.01 3.66 8.02 4 7 C3.01 7 2.02 7 1 7 C1.66 5.35 2.32 3.7 3 2 C1.35 2.33 -0.3 2.66 -2 3 C-1.34 2.01 -0.68 1.02 0 0 Z " fill="#2A2A2A" transform="translate(218,1239)"/>
<path d="M0 0 C0.33 0 0.66 0 1 0 C1.33 3.63 1.66 7.26 2 11 C3.32 11.33 4.64 11.66 6 12 C6.99 11.34 7.98 10.68 9 10 C9.33 10.99 9.66 11.98 10 13 C8.9375 14.5625 8.9375 14.5625 7 16 C3.3125 15.6875 3.3125 15.6875 0 15 C-0.66 13.35 -1.32 11.7 -2 10 C-1.34 10 -0.68 10 0 10 C0 6.7 0 3.4 0 0 Z " fill="#303130" transform="translate(189,1205)"/>
<path d="M0 0 C3.63 0 7.26 0 11 0 C10.67 0.66 10.34 1.32 10 2 C7.69 2 5.38 2 3 2 C3 4.64 3 7.28 3 10 C2.34 10 1.68 10 1 10 C0.67 10.99 0.34 11.98 0 13 C0 8.71 0 4.42 0 0 Z " fill="#0B0A09" transform="translate(649,1278)"/>
<path d="M0 0 C1.485 0.99 1.485 0.99 3 2 C3.40843923 4.71203652 3.13336867 7.2437142 3 10 C3.66 10 4.32 10 5 10 C5 7.03 5 4.06 5 1 C5.33 1 5.66 1 6 1 C6.16918268 2.58306647 6.33523936 4.16646719 6.5 5.75 C6.5928125 6.63171875 6.685625 7.5134375 6.78125 8.421875 C7 11 7 11 7 15 C6.01 14.34 5.02 13.68 4 13 C4 12.34 4 11.68 4 11 C2.68 11 1.36 11 0 11 C0 7.37 0 3.74 0 0 Z " fill="#666867" transform="translate(200,1205)"/>
<path d="M0 0 C3.625 -0.1875 3.625 -0.1875 7 0 C6.38125 0.2475 5.7625 0.495 5.125 0.75 C2.5523472 2.26332517 2.1156677 3.26853771 1 6 C0.55188863 8.35564596 0.55188863 8.35564596 0.375 10.75 C0.30023438 11.54921875 0.22546875 12.3484375 0.1484375 13.171875 C0.09945312 13.77515625 0.05046875 14.3784375 0 15 C-0.66 15 -1.32 15 -2 15 C-2.05406122 13.06280622 -2.09282025 11.12518079 -2.125 9.1875 C-2.14820313 8.10855469 -2.17140625 7.02960938 -2.1953125 5.91796875 C-2 3 -2 3 0 0 Z " fill="#121313" transform="translate(205,1200)"/>
<path d="M0 0 C0.33 0 0.66 0 1 0 C1.33 1.65 1.66 3.3 2 5 C2.33 5 2.66 5 3 5 C3 8.63 3 12.26 3 16 C0.78263366 14.89131683 -1.03617993 13.50559539 -3 12 C-2.690625 11.505 -2.38125 11.01 -2.0625 10.5 C-0.58355618 7.02013219 -0.37597149 3.75971491 0 0 Z " fill="#E6E5E4" transform="translate(693,1286)"/>
<path d="M0 0 C1.33895632 1.66215268 2.67130142 3.32963607 4 5 C4.5775 5.721875 5.155 6.44375 5.75 7.1875 C7 9 7 9 7 11 C5.68 11 4.36 11 3 11 C1.35 8.03 -0.3 5.06 -2 2 C-1.34 1.34 -0.68 0.68 0 0 Z " fill="#232221" transform="translate(708,1291)"/>
<path d="M0 0 C0.66 0.33 1.32 0.66 2 1 C1.525625 1.825 1.05125 2.65 0.5625 3.5 C-1.23569599 7.52795901 -1.6234255 10.63173579 -2 15 C-2.66 15 -3.32 15 -4 15 C-4.63019694 4.84682713 -4.63019694 4.84682713 -2 1.3125 C-1.34 0.879375 -0.68 0.44625 0 0 Z " fill="#171716" transform="translate(47,1200)"/>
<path d="M0 0 C1.32 0.66 2.64 1.32 4 2 C4 5.3 4 8.6 4 12 C3.01 10.68 2.02 9.36 1 8 C-1.475 9.485 -1.475 9.485 -4 11 C-4.33 10.01 -4.66 9.02 -5 8 C-4.01 7.67 -3.02 7.34 -2 7 C-0.77030122 3.48809191 -0.77030122 3.48809191 0 0 Z " fill="#CDCDCC" transform="translate(667,1282)"/>
<path d="M0 0 C7.76785714 -0.66964286 7.76785714 -0.66964286 11.5 2.375 C14 5 14 5 14 7 C13.34 7 12.68 7 12 7 C11.67 7.99 11.34 8.98 11 10 C10.54625 9.21625 10.0925 8.4325 9.625 7.625 C8.11571258 4.96301969 8.11571258 4.96301969 6 3 C6.33 2.34 6.66 1.68 7 1 C4.69 1 2.38 1 0 1 C0 0.67 0 0.34 0 0 Z " fill="#292A29" transform="translate(678,1277)"/>
<path d="M0 0 C0.33 0 0.66 0 1 0 C1.31608392 9.48251748 1.31608392 9.48251748 -1 12 C-4.625 12.75 -4.625 12.75 -8 13 C-7.67 12.01 -7.34 11.02 -7 10 C-5.68 10 -4.36 10 -3 10 C-2.01 6.7 -1.02 3.4 0 0 Z " fill="#1D1D1C" transform="translate(215,1208)"/>
<path d="M0 0 C5.57142857 5.14285714 5.57142857 5.14285714 6 9 C3.6875 8.8125 3.6875 8.8125 1 8 C-2 3.96551724 -2 3.96551724 -2 1 C-1.34 0.67 -0.68 0.34 0 0 Z " fill="#262524" transform="translate(663,1293)"/>
<path d="M0 0 C4.02550319 1.3418344 4.88285636 3.4227573 7 7 C7 7.66 7 8.32 7 9 C5.68 9 4.36 9 3 9 C-0.22265625 3.7265625 -0.22265625 3.7265625 -1 2 C-0.67 1.34 -0.34 0.68 0 0 Z " fill="#232323" transform="translate(639,1293)"/>
<path d="M0 0 C-1.49097658 3.7952131 -3.75700849 5.61042731 -7 8 C-7.99 7.34 -8.98 6.68 -10 6 C-9.09650406 4.98808455 -8.17659153 3.99081074 -7.25 3 C-6.48429688 2.1646875 -6.48429688 2.1646875 -5.703125 1.3125 C-4 0 -4 0 0 0 Z " fill="#2A2B2A" transform="translate(137,1199)"/>
<path d="M0 0 C0.99 0 1.98 0 3 0 C3 3.3 3 6.6 3 10 C2.01 10.33 1.02 10.66 0 11 C0 7.37 0 3.74 0 0 Z " fill="#0E0E0E" transform="translate(690,1284)"/>
<path d="M0 0 C1.21816406 0.03480469 1.21816406 0.03480469 2.4609375 0.0703125 C3.68683594 0.09738281 3.68683594 0.09738281 4.9375 0.125 C5.87722656 0.15980469 5.87722656 0.15980469 6.8359375 0.1953125 C6.8359375 0.8553125 6.8359375 1.5153125 6.8359375 2.1953125 C5.5778125 2.4840625 4.3196875 2.7728125 3.0234375 3.0703125 C-0.0180024 3.76834789 -1.47076128 4.39977835 -4.1640625 6.1953125 C-4.1640625 0.37581792 -4.1640625 0.37581792 0 0 Z " fill="#090A09" transform="translate(678.1640625,1277.8046875)"/>
<path d="M0 0 C0.70125 0.12375 1.4025 0.2475 2.125 0.375 C1.19847299 1.55039996 0.25836613 2.71510577 -0.6875 3.875 C-1.20957031 4.5246875 -1.73164062 5.174375 -2.26953125 5.84375 C-3.875 7.375 -3.875 7.375 -6.875 7.375 C-7.535 7.045 -8.195 6.715 -8.875 6.375 C-3.7809081 0.49316193 -3.7809081 0.49316193 0 0 Z " fill="#302E2D" transform="translate(712.875,1277.625)"/>
<path d="M0 0 C0.99 0.33 1.98 0.66 3 1 C3 3.31 3 5.62 3 8 C1.68 8 0.36 8 -1 8 C-1.04241723 5.66705225 -1.04092937 3.33297433 -1 1 C-0.67 0.67 -0.34 0.34 0 0 Z " fill="#E3E3E3" transform="translate(42,1241)"/>
<path d="M0 0 C0 4.29 0 8.58 0 13 C-0.66 13 -1.32 13 -2 13 C-2 10.03 -2 7.06 -2 4 C-2.99 3.67 -3.98 3.34 -5 3 C-2.25 0 -2.25 0 0 0 Z " fill="#333333" transform="translate(104,1239)"/>
<path d="M0 0 C0.556875 0.185625 1.11375 0.37125 1.6875 0.5625 C4.399133 1.07551165 6.34371039 0.6640724 9 0 C8.67 1.32 8.34 2.64 8 4 C5.36 4.33 2.72 4.66 0 5 C0 3.35 0 1.7 0 0 Z " fill="#5B5B5D" transform="translate(48,1195)"/>
<path d="M0 0 C0.66 0 1.32 0 2 0 C2.33 3.3 2.66 6.6 3 10 C2.01 10.33 1.02 10.66 0 11 C-1.49297212 8.01405576 -1.11755228 5.29146376 -1 2 C-0.67 1.34 -0.34 0.68 0 0 Z " fill="#1F1E1C" transform="translate(82,1206)"/>
<path d="M0 0 C0.66 0 1.32 0 2 0 C2 3.96 2 7.92 2 12 C0.68 11.67 -0.64 11.34 -2 11 C-1.34 7.37 -0.68 3.74 0 0 Z " fill="#F8F8F7" transform="translate(63,1206)"/>
<path d="M0 0 C2.64 0 5.28 0 8 0 C7.67 1.32 7.34 2.64 7 4 C7.66 4 8.32 4 9 4 C9 4.66 9 5.32 9 6 C6.03824877 5.38722388 4.61941217 4.74627478 2 3 C2 2.34 2 1.68 2 1 C1.34 0.67 0.68 0.34 0 0 Z " fill="#0B0B0B" transform="translate(654,1288)"/>
<path d="M0 0 C1.32 0 2.64 0 4 0 C4.66 1.65 5.32 3.3 6 5 C4 7 4 7 1.375 7.125 C0.59125 7.08375 -0.1925 7.0425 -1 7 C-1 6.34 -1 5.68 -1 5 C0.32 5 1.64 5 3 5 C3 4.34 3 3.68 3 3 C2.34 3 1.68 3 1 3 C0.67 2.01 0.34 1.02 0 0 Z " fill="#1A1919" transform="translate(87,1220)"/>
<path d="M0 0 C6.6 0 13.2 0 20 0 C19.01 0.495 19.01 0.495 18 1 C18 1.66 18 2.32 18 3 C17.01 3 16.02 3 15 3 C15 2.34 15 1.68 15 1 C10.05 1 5.1 1 0 1 C0 0.67 0 0.34 0 0 Z " fill="#F0F0F0" transform="translate(419,1130)"/>
<path d="M0 0 C0.66 0.33 1.32 0.66 2 1 C1.34 1.66 0.68 2.32 0 3 C-0.6425235 5.06874034 -0.6425235 5.06874034 -1 7 C-1.66 7 -2.32 7 -3 7 C-3.33 9.31 -3.66 11.62 -4 14 C-4.33 14 -4.66 14 -5 14 C-5.45772527 8.27843418 -4.54034087 5.50588838 -1 1 C-0.67 0.67 -0.34 0.34 0 0 Z " fill="#333333" transform="translate(85,1199)"/>
<path d="M0 0 C2.56695636 0.39491636 4.67123994 0.83561997 7 2 C7 2.66 7 3.32 7 4 C5.25 4.75 5.25 4.75 3 5 C0.75 3.0625 0.75 3.0625 -1 1 C-0.67 0.67 -0.34 0.34 0 0 Z " fill="#181616" transform="translate(660,1278)"/>
<path d="M0 0 C1.32 0 2.64 0 4 0 C4 1.65 4 3.3 4 5 C1.69 4.67 -0.62 4.34 -3 4 C-3 3.34 -3 2.68 -3 2 C-2.01 2 -1.02 2 0 2 C0 1.34 0 0.68 0 0 Z " fill="#E7E7E7" transform="translate(394,1245)"/>
<path d="M0 0 C0.99 0.33 1.98 0.66 3 1 C1.95125002 3.62187494 1.35068687 4.79371361 -1.125 6.25 C-1.74375 6.4975 -2.3625 6.745 -3 7 C-2.38722388 4.03824877 -1.74627478 2.61941217 0 0 Z " fill="#181918" transform="translate(96,1213)"/>
<path d="M0 0 C0.33 0 0.66 0 1 0 C1.12375 1.093125 1.2475 2.18625 1.375 3.3125 C1.75464801 7.07381802 1.75464801 7.07381802 4 10 C3.01 10.66 2.02 11.32 1 12 C-1.83022097 8.00439392 -0.76210446 4.57262677 0 0 Z " fill="#3A3A39" transform="translate(45,1207)"/>
<path d="M0 0 C5.5 -0.36666667 5.5 -0.36666667 7.875 1.375 C9 3 9 3 9 5 C6.07471973 4.37315423 3.58774327 3.51695295 1 2 C0.67 1.34 0.34 0.68 0 0 Z " fill="#2C2C2B" transform="translate(207,1199)"/>
<path d="M0 0 C0.66 0 1.32 0 2 0 C2 2.64 2 5.28 2 8 C1.34 8 0.68 8 0 8 C-1.125 5.6875 -1.125 5.6875 -2 3 C-1.34 2.01 -0.68 1.02 0 0 Z " fill="#272727" transform="translate(338,1239)"/>
<path d="M0 0 C0.66 1.32 1.32 2.64 2 4 C1.34 4.66 0.68 5.32 0 6 C-2.625 5.625 -2.625 5.625 -5 5 C-5.33 4.01 -5.66 3.02 -6 2 C-4.02 2.66 -2.04 3.32 0 4 C0 2.68 0 1.36 0 0 Z " fill="#3F3F3F" transform="translate(398,1246)"/>
<path d="M0 0 C1.670625 0.061875 1.670625 0.061875 3.375 0.125 C0.90764116 2.59235884 -1.34671521 3.0322384 -4.625 4.125 C-5.285 4.785 -5.945 5.445 -6.625 6.125 C-5.71577947 1.57889733 -4.95184304 0.17075321 0 0 Z " fill="#121212" transform="translate(90.625,1198.875)"/>
<path d="M0 0 C2.64 0 5.28 0 8 0 C7.34 0.66 6.68 1.32 6 2 C5.35232207 4.57061311 5.35232207 4.57061311 5 7 C4.67 7 4.34 7 4 7 C4 5.35 4 3.7 4 2 C2.35 2.66 0.7 3.32 -1 4 C-0.67 2.68 -0.34 1.36 0 0 Z " fill="#F1F1F0" transform="translate(696,1275)"/>
<path d="M0 0 C2 3 2 3 2 5 C0.02 5.33 -1.96 5.66 -4 6 C-4.33 4.68 -4.66 3.36 -5 2 C-2.525 2.99 -2.525 2.99 0 4 C0 2.68 0 1.36 0 0 Z " fill="#3C3C3C" transform="translate(279,1246)"/>
<path d="M0 0 C-1.44253657 3.36591866 -3.33264727 5.51047079 -6 8 C-6.33 7.01 -6.66 6.02 -7 5 C-2.25 0 -2.25 0 0 0 Z " fill="#2D2D2D" transform="translate(180,1199)"/>
<path d="M0 0 C0.99 0 1.98 0 3 0 C3.66 1.98 4.32 3.96 5 6 C4.01 6.33 3.02 6.66 2 7 C1.34 4.69 0.68 2.38 0 0 Z " fill="#EEEEEF" transform="translate(23,887)"/>
<path d="M0 0 C2.31 0.33 4.62 0.66 7 1 C7 1.66 7 2.32 7 3 C4.36 3 1.72 3 -1 3 C-0.67 2.01 -0.34 1.02 0 0 Z " fill="#121413" transform="translate(48,1217)"/>
<path d="M0 0 C0.66 1.32 1.32 2.64 2 4 C0 6 0 6 -3.125 6.125 C-4.548125 6.063125 -4.548125 6.063125 -6 6 C-5.38125 5.938125 -4.7625 5.87625 -4.125 5.8125 C-1.72238859 5.171081 -1.72238859 5.171081 -0.75 2.4375 C-0.5025 1.633125 -0.255 0.82875 0 0 Z " fill="#CFD0D0" transform="translate(93,1212)"/>
<path d="M0 0 C1.32 0.33 2.64 0.66 4 1 C3.67 1.66 3.34 2.32 3 3 C3.66 3.33 4.32 3.66 5 4 C3.35 4.33 1.7 4.66 0 5 C0 3.35 0 1.7 0 0 Z " fill="#F4F4F4" transform="translate(105,1202)"/>
<path d="M0 0 C0.6875 2.0625 0.6875 2.0625 1 4 C0.01 4.33 -0.98 4.66 -2 5 C-2.33 4.01 -2.66 3.02 -3 2 C-5.00016466 0.79117904 -5.00016466 0.79117904 -7 0 C-3.98968256 -0.93423645 -3.13349732 -1.04449911 0 0 Z " fill="#2B2B2B" transform="translate(199,1201)"/>
<path d="M0 0 C0.66 0 1.32 0 2 0 C2 0.66 2 1.32 2 2 C3.98 1.67 5.96 1.34 8 1 C7.01 2.485 7.01 2.485 6 4 C4.35 3.67 2.7 3.34 1 3 C0.67 2.01 0.34 1.02 0 0 Z " fill="#373737" transform="translate(216,1248)"/>
<path d="M0 0 C2.475 0.495 2.475 0.495 5 1 C6 4 6 4 5.0625 6.1875 C4.5365625 7.0846875 4.5365625 7.0846875 4 8 C3.896875 7.236875 3.79375 6.47375 3.6875 5.6875 C2.95635961 2.82940576 2.23048087 1.84257115 0 0 Z " fill="#3E3E3E" transform="translate(41,1239)"/>
<path d="M0 0 C2.31 0 4.62 0 7 0 C7 0.66 7 1.32 7 2 C5.35 2 3.7 2 2 2 C1.67 2.66 1.34 3.32 1 4 C0.67 2.68 0.34 1.36 0 0 Z " fill="#3E3C3D" transform="translate(393,1239)"/>
<path d="M0 0 C0.99 0 1.98 0 3 0 C3.66 1.65 4.32 3.3 5 5 C3.68 4.67 2.36 4.34 1 4 C0.67 2.68 0.34 1.36 0 0 Z " fill="#2B2B2B" transform="translate(133,1216)"/>
</svg>
