<svg version="1.1" id="Layer_1" xmlns="http://www.w3.org/2000/svg" xmlns:xlink="http://www.w3.org/1999/xlink" x="0px" y="0px"
	 width="100%" viewBox="0 0 688 1024" enable-background="new 0 0 688 1024" xml:space="preserve">
<path fill="#000000" opacity="1.000000" stroke="none" 
	d="
M685.943970,263.999969 
	C685.972595,402.154602 686.006531,539.809265 686.038208,677.463867 
	C686.062622,783.619629 686.084167,889.775330 686.107239,995.931091 
	C686.108582,1002.240845 685.509766,1002.899597 678.801270,1002.907959 
	C640.830322,1002.955261 602.850098,1003.495728 564.890991,1002.834106 
	C522.065125,1002.087646 479.250549,1004.028442 436.445312,1002.875244 
	C402.461243,1001.959595 368.496918,1002.850586 334.523712,1002.889648 
	C233.380463,1003.006042 132.237167,1003.062866 31.093899,1003.159851 
	C18.188082,1003.172180 19.801044,1003.326477 19.797993,991.721497 
	C19.756365,833.399292 19.729055,675.077148 19.748449,516.754944 
	C19.764374,386.765259 19.847458,256.775604 19.899937,126.785934 
	C19.913595,92.955635 19.912844,59.125317 19.945484,25.295034 
	C19.952152,18.385010 20.376461,17.949575 27.355545,17.948563 
	C117.180481,17.935507 207.005417,17.957344 296.830353,17.943064 
	C395.322235,17.927406 493.814087,17.882830 592.305969,17.852417 
	C607.097473,17.847851 621.888977,17.851784 636.704529,18.709032 
	C633.942871,20.877504 630.943726,20.920500 627.914795,20.936274 
	C586.619568,21.151308 545.324646,21.471395 504.029144,21.581984 
	C479.383301,21.647984 454.736633,21.324253 430.090179,21.296728 
	C385.630676,21.247076 341.171112,21.274855 296.711548,21.296276 
	C268.568085,21.309835 240.424606,21.403746 212.281143,21.402470 
	C165.179474,21.400335 118.077812,21.352757 70.976143,21.320263 
	C57.336788,21.310854 43.697441,21.283283 30.058084,21.272600 
	C23.316484,21.267321 23.285751,21.276131 23.285757,27.869179 
	C23.285816,104.695175 23.301134,181.521164 23.301159,258.347168 
	C23.301172,301.506012 23.269690,344.664856 23.270784,387.823700 
	C23.273932,511.970215 23.287779,636.116699 23.294758,760.263245 
	C23.299097,837.417480 23.299881,914.571716 23.298386,991.725952 
	C23.298229,999.784058 23.289471,999.614929 31.162897,999.776611 
	C46.976131,1000.101318 62.742378,998.499451 78.568451,998.978455 
	C95.921783,999.503662 113.291122,999.554321 130.654434,999.666992 
	C136.960266,999.707886 139.749115,997.026733 138.559753,990.991821 
	C137.480423,985.515259 138.675537,980.211853 138.359085,974.818359 
	C138.002701,968.744385 138.388885,962.576538 138.263611,956.440857 
	C138.203033,953.473511 137.352036,952.010681 134.290359,952.193176 
	C127.347382,952.607178 120.335991,952.734436 113.445801,952.908020 
	C105.818550,953.100159 97.977509,952.245667 90.213181,952.207397 
	C88.255035,952.197754 86.191116,951.788025 84.475662,953.275818 
	C84.217506,956.380005 88.753716,956.188660 88.734802,959.052429 
	C86.887436,960.776611 85.931206,958.303528 84.449196,958.545410 
	C83.661888,959.702820 82.855255,960.888611 81.944870,962.226929 
	C89.282471,967.916138 85.990990,975.888611 86.694542,982.981628 
	C87.250679,988.588379 86.525604,993.332520 79.103439,993.064880 
	C78.400818,993.039551 77.621620,993.778442 76.957222,994.269775 
	C72.061737,997.889771 67.880333,997.388489 64.159485,992.538147 
	C63.356449,991.491333 62.412582,991.863281 61.504135,991.645081 
	C59.558868,991.177673 57.191288,990.833618 57.172604,988.315796 
	C57.152802,985.647156 58.418129,983.485107 61.447815,983.006653 
	C63.147987,982.738220 64.727303,982.297302 65.141197,980.517761 
	C65.157166,978.143616 60.544353,977.741516 62.776722,975.146362 
	C64.861168,972.723206 67.345253,975.174500 69.743195,975.890198 
	C63.842552,965.396484 73.886490,960.696655 77.257721,953.589539 
	C74.511436,952.461670 72.850006,955.497559 69.967453,956.214355 
	C69.326965,951.466187 65.689606,952.228577 62.518406,952.178467 
	C55.362301,952.065430 48.202904,951.896545 41.048965,952.010132 
	C36.750084,952.078369 35.895615,949.423340 36.117149,946.176453 
	C37.434113,926.874817 36.352856,907.559265 36.507343,888.252991 
	C36.699047,864.295776 35.980740,840.331543 36.139435,816.373596 
	C36.310146,790.601440 35.520668,764.814270 36.013386,739.078125 
	C36.468475,715.307373 35.353626,691.552246 36.392765,667.776489 
	C37.125134,651.019836 36.022610,634.189331 35.995449,617.391357 
	C35.966438,599.446899 36.692543,581.490479 36.235847,563.561035 
	C35.866665,549.067200 36.135460,534.587708 36.056290,520.104187 
	C35.937431,498.360321 36.696442,476.604950 36.243073,454.871918 
	C35.913342,439.065674 36.484535,423.281006 36.457985,407.488495 
	C36.430351,391.055511 35.482346,374.602203 36.622520,358.168060 
	C36.822498,355.285583 36.828636,352.387634 33.220299,350.753418 
	C36.283134,347.378387 36.925259,343.547394 36.510136,339.559601 
	C35.505878,329.912384 35.995121,320.248016 36.022877,310.591095 
	C36.096539,284.960785 36.320896,259.330750 36.345074,233.700485 
	C36.366882,210.578827 36.173939,187.457047 36.128178,164.335220 
	C36.065636,132.733429 36.115376,101.131218 35.951874,69.530029 
	C35.927044,64.731026 38.090183,63.639462 42.365738,63.654457 
	C72.361900,63.759628 102.358604,63.718925 132.355133,63.706612 
	C138.677933,63.704014 138.732620,63.624836 138.744934,57.224403 
	C138.753571,52.724831 138.733047,48.225163 138.715103,43.725582 
	C138.691330,37.764870 139.388947,36.968521 145.172028,36.960953 
	C170.000092,36.928467 194.828217,36.935745 219.656311,36.925411 
	C268.297119,36.905163 316.937897,36.853989 365.578705,36.868458 
	C430.567780,36.887794 495.556824,36.948803 560.545898,37.016960 
	C568.164795,37.024952 568.205139,37.140400 568.217041,44.988766 
	C568.223389,49.155167 568.445129,53.335506 568.176392,57.484081 
	C567.904053,61.689564 569.626038,62.933495 573.685364,62.903137 
	C595.182983,62.742374 616.682251,62.797302 638.180908,62.784153 
	C646.846985,62.778851 655.519348,62.989140 664.176636,62.714943 
	C668.860901,62.566586 670.282471,64.454308 670.229980,68.891190 
	C670.062500,83.048569 670.160339,97.209145 670.163818,111.368484 
	C670.181274,182.331802 670.224121,253.295135 670.214355,324.258453 
	C670.204102,399.247406 670.111816,474.236328 670.120361,549.225281 
	C670.124573,586.050232 670.347778,622.875183 670.341064,659.700134 
	C670.333740,699.689209 670.127014,739.678223 670.093018,779.667358 
	C670.046814,833.972412 670.086914,888.277527 670.077209,942.582581 
	C670.075684,951.315430 670.044678,951.270447 661.068909,951.343994 
	C640.776306,951.510193 620.484436,951.772766 600.191589,951.892334 
	C593.876892,951.929443 587.578430,951.035522 581.235840,951.848633 
	C578.503601,952.198914 575.960510,954.221008 572.744690,951.711243 
	C570.928528,950.293884 568.297791,952.100525 568.299011,955.244080 
	C568.304199,968.742920 568.348938,982.242004 568.287781,995.740540 
	C568.271301,999.372681 570.528015,999.662964 573.261169,999.658020 
	C595.755005,999.617310 618.248901,999.582703 640.742737,999.580261 
	C652.161194,999.579041 663.579712,999.667053 674.998169,999.678406 
	C682.689697,999.686035 682.697998,999.657593 682.697876,991.885254 
	C682.695557,817.060974 682.688416,642.236755 682.688232,467.412506 
	C682.688049,322.753326 682.695557,178.094116 682.699707,33.434929 
	C682.699768,31.768347 682.704834,30.101755 682.700378,28.435186 
	C682.681030,21.212168 682.680115,21.217949 675.572449,21.200647 
	C670.072937,21.187260 664.573364,21.169182 659.073975,21.128838 
	C656.613647,21.110788 654.194519,20.863794 651.414978,19.406376 
	C661.903503,17.159945 671.908203,18.038450 681.857605,17.966736 
	C685.938721,17.937319 685.978394,20.972567 685.978455,23.964867 
	C685.978699,44.296558 686.026794,64.628258 686.021667,84.959946 
	C686.006653,144.473282 685.974060,203.986633 685.943970,263.999969 
M406.500061,805.278564 
	C391.181549,805.265808 375.860382,805.410400 360.546143,805.147644 
	C355.746124,805.065308 354.195831,806.558777 354.262604,811.413025 
	C354.517090,829.909485 354.392059,848.411255 354.385284,866.911072 
	C354.382446,874.632202 354.355621,874.683350 361.955597,874.687805 
	C392.955353,874.706055 423.955170,874.673584 454.954834,874.726929 
	C456.886078,874.730225 459.289978,873.718384 460.677582,876.237915 
	C459.068604,878.652405 456.695587,877.960999 454.662872,877.963562 
	C423.330811,878.002869 391.998352,878.041016 360.666870,877.890015 
	C356.094360,877.867981 354.231506,878.952026 354.270203,884.023926 
	C354.497925,913.855225 354.375122,943.689148 354.374573,973.522217 
	C354.374451,980.844604 354.381592,980.903931 361.930939,980.896118 
	C390.929749,980.866089 419.928528,980.758789 448.927307,980.755066 
	C461.968262,980.753418 462.118927,980.834045 462.056366,993.971558 
	C462.035645,998.321960 463.444214,999.834473 467.825470,999.746826 
	C479.987457,999.503479 492.156891,999.613342 504.323364,999.617737 
	C512.725586,999.620728 512.732971,999.646057 512.732544,991.033142 
	C512.727722,899.367249 512.715881,807.701355 512.714600,716.035461 
	C512.711914,523.203552 512.701111,330.371704 512.770508,137.539841 
	C512.772949,130.856064 512.273438,124.233147 511.532288,117.633728 
	C510.365906,107.248039 505.309082,99.124672 496.234711,93.744713 
	C488.814178,89.345291 480.533661,88.355980 472.145264,88.383301 
	C437.835236,88.495049 403.525879,88.793602 369.215851,88.911430 
	C323.050842,89.069969 276.884369,88.968262 230.720703,89.291725 
	C207.998489,89.450943 194.497086,102.846695 194.353226,125.469139 
	C194.061798,171.296829 194.165558,217.127213 194.156677,262.956482 
	C194.140808,344.954926 194.177963,426.953369 194.164078,508.951813 
	C194.145233,620.283142 194.099274,731.614502 194.064819,842.945862 
	C194.049545,892.278503 194.063675,941.611145 193.917770,990.943420 
	C193.911453,993.081970 196.219467,997.134033 192.752823,997.238953 
	C189.002563,997.352600 190.785324,993.023987 190.784531,990.756104 
	C190.685394,707.091431 190.684265,423.426758 190.661728,139.762085 
	C190.661163,132.770370 190.632080,125.791908 191.705887,118.851944 
	C193.565277,106.834549 198.898254,97.236938 209.980270,91.256729 
	C219.508972,86.114746 229.870041,86.072426 240.170792,86.036026 
	C304.996582,85.806915 369.822845,85.714630 434.649017,85.599129 
	C448.975159,85.573608 463.306824,85.396141 477.626373,85.715912 
	C498.350525,86.178703 510.943390,97.086731 514.538086,117.304871 
	C516.146851,126.353157 516.272705,135.514648 516.269348,144.685028 
	C516.221313,275.683014 516.195129,406.680969 516.178894,537.678955 
	C516.160217,689.010620 516.151184,840.342285 516.194214,991.673950 
	C516.194885,994.093872 515.342529,996.586304 516.438599,999.220886 
	C517.574341,999.363159 518.702148,999.624939 519.830566,999.627441 
	C533.158447,999.657410 546.487000,999.574585 559.813904,999.691833 
	C564.234985,999.730713 565.018127,997.335510 564.989197,993.631287 
	C564.887512,980.632568 565.022827,967.631775 564.891663,954.633545 
	C564.848328,950.334351 566.043335,948.513550 570.884766,948.548706 
	C600.882446,948.766724 630.882507,948.627930 660.881836,948.655518 
	C664.141663,948.658569 666.802002,948.593323 666.779114,944.082275 
	C666.668518,922.249695 666.698792,900.416138 666.782471,878.583313 
	C666.794861,875.342834 665.584961,874.176025 662.353210,874.226685 
	C653.688965,874.362549 645.020813,874.252014 636.354248,874.241394 
	C614.855286,874.215027 593.356323,874.211243 571.857544,874.126221 
	C569.992310,874.118835 567.419373,874.999207 566.797424,871.914185 
	C568.557983,870.270508 570.481934,870.866577 572.234680,870.864746 
	C601.734253,870.834106 631.234375,870.759644 660.732727,870.953186 
	C665.259155,870.982849 666.860535,869.861084 666.797974,865.115662 
	C666.562866,847.285828 666.742554,829.450623 666.739441,811.617432 
	C666.738342,805.376587 666.618286,805.304321 660.196777,805.303711 
	C631.197144,805.300964 602.197449,805.309082 573.197937,805.252380 
	C571.193237,805.248474 568.888794,805.969421 567.062927,803.862183 
	C568.666992,801.171204 571.201660,801.898193 573.321472,801.895142 
	C601.987610,801.854065 630.653748,801.872986 659.319946,801.907532 
	C666.718994,801.916443 666.721619,801.964966 666.722900,794.388977 
	C666.725586,778.389099 666.520691,762.385132 666.842896,746.391724 
	C666.947693,741.191895 665.176208,739.942200 660.254517,739.965210 
	C630.923950,740.102295 601.591919,739.954468 572.260620,739.851868 
	C570.401184,739.845398 568.191040,740.613647 566.848877,738.282593 
	C568.247681,735.703918 570.702148,736.740723 572.645874,736.737488 
	C601.978638,736.688843 631.311951,736.674072 660.644104,736.835205 
	C665.002258,736.859070 666.911072,735.815735 666.848022,730.988647 
	C666.617371,713.325439 666.630432,695.654846 666.890991,677.992065 
	C666.962097,673.173035 665.125305,672.199341 660.733521,672.224304 
	C631.234741,672.391479 601.734497,672.336182 572.234924,672.280945 
	C570.416138,672.277527 568.215881,673.158997 566.672241,670.838501 
	C568.043579,668.379761 570.437683,669.030701 572.378418,669.116455 
	C586.852112,669.756165 601.321106,669.078796 615.790955,669.119629 
	C630.432922,669.161011 645.074036,669.421021 659.716064,669.520447 
	C666.705688,669.567932 666.723694,669.500061 666.730408,662.692627 
	C666.746399,646.526123 666.740356,630.359558 666.751160,614.193054 
	C666.755798,607.231689 666.764648,607.220459 659.999390,607.220215 
	C630.999634,607.219116 601.999756,607.244812 573.000122,607.186157 
	C571.015076,607.182129 568.594666,608.065979 567.138367,605.525635 
	C568.663330,602.794189 571.281128,603.821960 573.389648,603.816650 
	C602.055908,603.743835 630.722412,603.774414 659.388855,603.771790 
	C666.734924,603.771118 666.738464,603.758972 666.738098,596.219849 
	C666.737366,579.386658 666.738708,562.553406 666.726807,545.720215 
	C666.722107,539.064636 666.707153,539.056152 660.146057,539.056885 
	C630.980591,539.060059 601.815002,539.088440 572.649658,539.033142 
	C570.579468,539.029236 567.977905,539.838928 566.639099,537.069885 
	C568.329285,534.844055 570.497131,535.722351 572.328979,535.719116 
	C601.828674,535.667908 631.329041,535.609192 660.827759,535.791260 
	C665.471985,535.820007 666.882874,534.284180 666.830017,529.736572 
	C666.630554,512.572388 666.634094,495.402893 666.849670,478.238983 
	C666.907410,473.644897 665.441650,472.270691 660.819092,472.299469 
	C631.488464,472.482056 602.156067,472.384735 572.824280,472.332245 
	C570.999878,472.328979 568.932861,472.881104 566.972778,470.943390 
	C570.364502,468.951477 573.714783,469.396851 576.848999,469.399109 
	C604.845032,469.419159 632.841736,469.492615 660.836121,469.767670 
	C665.437012,469.812866 666.892395,468.309814 666.833740,463.724457 
	C666.612183,446.394104 666.571716,429.056549 666.848389,411.727814 
	C666.927795,406.755096 665.614685,405.123108 660.444031,405.165833 
	C631.279541,405.406799 602.112000,405.309570 572.945679,405.250000 
	C570.992188,405.246002 568.588318,406.169708 567.060791,403.640625 
	C568.676941,401.321655 571.029907,402.040131 573.040771,402.035004 
	C602.205688,401.960663 631.371216,401.863495 660.535400,402.009857 
	C665.349609,402.034027 666.873352,400.448151 666.806885,395.668579 
	C666.582092,379.505463 666.749878,363.336884 666.757690,347.170410 
	C666.761047,340.121765 666.750061,340.104736 659.535645,340.069336 
	C629.547852,339.922180 599.559998,339.782990 569.572144,339.657166 
	C568.314026,339.651886 567.199219,339.610504 567.198181,337.797150 
	C568.859253,335.888397 571.177429,336.693573 573.196106,336.690369 
	C602.529114,336.643738 631.862488,336.621521 661.195007,336.752960 
	C665.185913,336.770844 666.838806,335.689148 666.800049,331.400818 
	C666.634460,313.069275 666.672058,294.734344 666.845215,276.402618 
	C666.883850,272.309998 665.542480,270.865631 661.380493,270.861084 
	C637.570435,270.835022 613.760742,270.540619 589.950500,270.431488 
	C583.297791,270.401001 576.644775,271.275146 569.989197,270.421875 
	C568.751160,270.263153 567.185120,270.785248 566.888184,268.721619 
	C568.222412,266.846863 570.228149,267.721283 571.903748,267.718597 
	C601.570129,267.671265 631.236572,267.696777 660.903015,267.702118 
	C663.754761,267.702637 666.758057,268.136322 666.741943,263.687561 
	C666.673584,244.854675 666.703979,226.021408 666.727112,207.188324 
	C666.729797,205.005783 666.080139,203.792984 663.587036,203.787018 
	C654.094727,203.764313 644.590820,203.247314 635.113037,203.565414 
	C613.289307,204.297913 591.481689,203.600571 569.667969,203.352234 
	C568.577942,203.339828 567.233887,203.597382 566.847107,201.935928 
	C567.706299,199.887405 569.465759,200.440262 571.087402,200.463989 
	C574.916992,200.520004 578.747559,200.523560 582.577698,200.524628 
	C599.390137,200.529282 616.202698,200.502533 633.015076,200.533600 
	C642.675598,200.551468 652.337402,200.580780 661.995605,200.766632 
	C665.379211,200.831757 666.787048,199.641907 666.769592,196.135818 
	C666.678040,177.803116 666.704956,159.469528 666.781555,141.136612 
	C666.794128,138.127304 665.519592,136.950333 662.613647,136.920151 
	C652.471558,136.814758 642.305481,136.092773 632.194092,136.569946 
	C611.031860,137.568604 589.893921,136.364029 568.746887,136.568497 
	C567.841003,136.577255 567.128174,136.303848 566.789062,135.389923 
	C568.514648,133.578308 568.515686,133.536789 570.587036,133.589798 
	C600.735168,134.361298 630.887695,132.224182 661.029602,133.706940 
	C665.388489,133.921341 666.896606,132.482788 666.854309,128.077545 
	C666.673523,109.246201 666.648743,90.410873 666.853333,71.580116 
	C666.902710,67.029678 665.177002,65.889107 660.965881,66.000992 
	C651.139893,66.262062 641.303589,66.154274 631.471497,66.160507 
	C611.472351,66.173203 591.471985,66.038040 571.475037,66.247879 
	C566.398804,66.301155 564.516968,64.480362 564.934753,59.520515 
	C565.213440,56.212101 564.936523,52.858711 564.947205,49.525574 
	C564.980469,39.152367 565.744385,40.218094 555.485718,40.218929 
	C453.322876,40.227287 351.160004,40.247139 248.997147,40.259357 
	C215.331665,40.263382 181.666168,40.248798 148.000687,40.257561 
	C142.347519,40.259033 141.414978,41.193447 141.456329,46.984379 
	C141.485992,51.140869 141.638962,55.298504 141.829651,59.451370 
	C142.160355,66.653244 141.826813,67.112488 134.513428,67.115822 
	C105.014313,67.129242 75.515175,67.085014 46.016052,67.074402 
	C39.916260,67.072205 39.389736,67.540985 39.370346,73.549210 
	C39.316021,90.381767 39.300381,107.214577 39.330147,124.047173 
	C39.335621,127.143333 39.625717,130.238998 39.801991,133.677277 
	C56.912682,132.530426 73.552376,133.091125 90.190125,133.096558 
	C106.645470,133.101944 123.092079,133.247833 140.147827,133.928513 
	C138.824493,136.692810 137.632431,136.571411 136.461578,136.568848 
	C106.298180,136.502548 76.134758,136.444366 45.971348,136.381332 
	C39.892471,136.368622 39.378700,136.721985 39.355194,142.861801 
	C39.288914,160.175095 39.350822,177.488892 39.369923,194.802490 
	C39.370842,195.634857 39.436474,196.467712 39.487793,197.299377 
	C39.628620,199.581451 40.870934,200.500839 43.117310,200.384308 
	C54.604969,199.788345 66.078369,200.242065 77.571037,200.525681 
	C96.372246,200.989655 115.191345,200.708206 134.002350,200.827515 
	C135.825684,200.839081 138.095047,200.001755 139.358078,202.444595 
	C137.923782,204.953735 135.506088,203.993500 133.536804,203.983139 
	C104.052963,203.828033 74.568985,203.641785 45.086731,203.311035 
	C40.900795,203.264069 39.275402,204.266907 39.373680,208.934235 
	C39.685524,223.744553 39.378002,238.567001 39.423363,253.384415 
	C39.437424,257.978516 39.813530,262.571472 40.067898,268.126160 
	C73.437431,268.126160 106.367905,268.126160 140.473495,268.126160 
	C137.545731,271.565094 134.907974,270.881653 132.605820,270.878082 
	C103.610901,270.833252 74.615990,270.729767 45.621414,270.576843 
	C41.348377,270.554321 39.240543,272.021362 39.284328,276.713989 
	C39.450588,294.533539 39.316040,312.355713 39.360401,330.176727 
	C39.376637,336.700439 39.461018,336.681824 46.174721,336.679962 
	C75.340981,336.671844 104.507294,336.652313 133.673355,336.727936 
	C135.571487,336.732849 138.064026,335.683685 139.383072,338.543915 
	C137.731979,340.760681 135.400284,340.060638 133.384384,340.063019 
	C104.218895,340.097534 75.053337,340.063904 45.887806,340.071686 
	C39.570465,340.073395 39.345608,340.314117 39.339355,346.457581 
	C39.328503,357.123901 39.002827,367.805695 39.476460,378.451355 
	C39.822155,386.221436 39.394760,393.999756 39.561459,401.976196 
	C73.069557,402.335449 106.115128,401.120148 140.435898,402.949921 
	C137.608719,405.997772 135.504822,405.281952 133.673737,405.284790 
	C104.340668,405.330292 75.007095,405.389679 45.674789,405.232819 
	C41.236248,405.209076 39.265610,406.456818 39.318565,411.119019 
	C39.517132,428.600586 39.741131,446.089020 39.420956,463.565063 
	C39.324146,468.849091 41.023743,469.922577 45.890182,469.891479 
	C75.054604,469.704926 104.220963,469.793549 133.386459,469.868378 
	C135.361145,469.873474 137.763199,468.883606 139.291092,471.336670 
	C137.887482,473.892334 135.487930,473.028748 133.498703,473.031433 
	C104.165932,473.071075 74.833008,473.071289 45.500313,473.002045 
	C41.960361,472.993683 39.321583,473.232422 39.380730,477.923553 
	C39.599033,495.238129 39.707874,512.556702 39.570923,529.871460 
	C39.532993,534.666931 41.131840,535.857544 45.898575,535.818115 
	C74.896271,535.578003 103.897156,535.694519 132.896774,535.770813 
	C135.106567,535.776672 137.805450,534.982910 139.643997,538.002808 
	C136.103271,539.712341 132.752289,539.071411 129.539413,539.077209 
	C101.540092,539.127991 73.540588,539.118591 45.541248,539.067627 
	C42.033180,539.061279 39.273651,539.364014 39.302864,543.991577 
	C39.414310,561.644836 39.242252,579.300476 39.437965,596.952332 
	C39.511372,603.572693 40.193031,603.850830 46.812271,603.860657 
	C75.644791,603.903381 104.477333,603.960144 133.309631,604.072205 
	C135.419922,604.080444 137.902893,603.459656 139.624786,606.014648 
	C137.569702,607.958069 135.308807,607.287415 133.283020,607.290894 
	C104.283394,607.341248 75.283661,607.326111 46.283978,607.349182 
	C39.866058,607.354248 39.333652,607.870422 39.333107,614.093811 
	C39.331646,630.758057 39.516296,647.424316 39.295334,664.085327 
	C39.234802,668.649414 40.927673,669.732483 45.139023,669.682129 
	C61.107357,669.490906 77.079224,669.588745 93.049774,669.589844 
	C106.868820,669.590820 120.688187,669.564758 134.506500,669.670227 
	C136.229080,669.683350 138.568649,668.811157 139.598572,671.334412 
	C138.277832,672.975647 136.673996,672.326233 135.280746,672.327332 
	C105.281204,672.351074 75.281067,672.421265 45.282654,672.230225 
	C40.666153,672.200806 39.185188,673.642273 39.241425,678.212219 
	C39.458782,695.874268 39.384892,713.540039 39.379066,731.204468 
	C39.377003,737.468384 39.418274,737.588928 45.794262,737.594849 
	C75.098160,737.621887 104.402092,737.619873 133.705917,737.679932 
	C135.553589,737.683716 137.615097,737.125061 139.503830,738.706909 
	C137.957962,741.007141 135.769257,740.436829 133.972610,740.463196 
	C128.143707,740.548767 122.311523,740.370972 116.480438,740.355286 
	C92.482040,740.290710 68.483513,740.267456 44.485245,740.174072 
	C41.490028,740.162415 39.293228,740.500244 39.274914,744.366272 
	C39.190544,762.180908 40.328449,779.994507 39.349762,797.807983 
	C39.182438,800.853516 40.587070,801.949341 43.527145,801.901855 
	C49.358307,801.807556 55.192516,801.913818 61.025475,801.916626 
	C85.190819,801.928467 109.356285,801.899780 133.521286,801.993530 
	C135.784988,802.002319 138.502396,801.361511 140.174942,803.783630 
	C139.071014,806.170654 137.193741,805.342041 135.654190,805.342407 
	C105.487946,805.349121 75.321068,805.412292 45.156097,805.205688 
	C40.424088,805.173340 39.155579,806.829834 39.210388,811.304260 
	C39.428532,829.113098 39.552437,846.928955 39.257931,864.734619 
	C39.171196,869.978333 40.913799,870.990540 45.804848,870.949585 
	C75.135933,870.703735 104.469955,870.790894 133.802917,870.825989 
	C135.867722,870.828430 138.403809,870.053345 139.791061,872.715332 
	C137.834442,874.946167 135.527512,874.212158 133.486450,874.216858 
	C104.320244,874.283936 75.153885,874.289856 45.987564,874.304016 
	C39.345379,874.307251 39.284843,874.338257 39.345276,880.980347 
	C39.527172,900.972778 39.872276,920.965332 39.838341,940.957275 
	C39.826073,948.184143 37.767059,948.651855 47.567196,948.645630 
	C77.399719,948.626709 107.232468,948.669373 137.064438,948.535095 
	C140.334702,948.520386 141.486603,949.419250 141.500748,952.729431 
	C141.557587,966.041809 141.866882,979.352844 142.009521,992.665161 
	C142.083374,999.556580 142.052216,999.634338 148.987625,999.638062 
	C176.462677,999.652771 203.937729,999.627014 231.412766,999.645081 
	C245.059525,999.653992 243.654648,1001.307739 243.724274,987.450562 
	C243.757538,980.828979 243.832031,980.725281 250.414749,980.729858 
	C281.912262,980.751892 313.409760,980.806274 344.907288,980.806030 
	C351.661835,980.805969 351.676758,980.723572 351.679321,974.201111 
	C351.691162,944.368347 351.697205,914.535522 351.697479,884.702759 
	C351.697540,877.937317 351.581635,877.918457 344.597107,877.927002 
	C313.431915,877.965149 282.266602,877.967163 251.101379,877.930908 
	C249.280640,877.928772 247.033325,878.683289 245.845490,876.014587 
	C247.520416,873.946411 249.844238,874.731201 251.838654,874.728149 
	C283.004944,874.679932 314.171783,874.621521 345.337341,874.785522 
	C349.958374,874.809814 351.822937,873.660889 351.762421,868.676941 
	C351.533783,849.847046 351.705231,831.012390 351.715424,812.179504 
	C351.719147,805.301147 351.704529,805.280273 344.800964,805.277405 
	C313.634552,805.264526 282.468109,805.284302 251.301865,805.210999 
	C249.406586,805.206543 246.928558,806.254089 245.619888,803.383057 
	C247.641632,800.967102 250.329193,801.837463 252.639526,801.834290 
	C283.805511,801.791382 314.971985,801.773621 346.137207,801.950684 
	C350.487915,801.975403 351.922791,800.693298 351.848206,796.250366 
	C351.599274,781.423340 351.788605,766.589478 351.749146,751.758301 
	C351.714661,738.788513 351.650360,738.948303 338.360657,739.443604 
	C308.877106,740.542542 279.377930,739.848145 249.885284,739.883423 
	C248.385254,739.885193 246.441483,740.393494 245.949844,737.950439 
	C247.679398,735.919434 249.996613,736.694824 252.021988,736.689636 
	C277.354736,736.624268 302.687714,736.636414 328.020630,736.628418 
	C334.687164,736.626282 341.353699,736.616455 348.020233,736.623657 
	C350.966431,736.626831 353.001648,735.526672 352.709839,732.245300 
	C351.157562,714.790161 351.892059,697.296448 351.773956,679.818726 
	C351.723267,672.321045 351.858612,672.313599 344.121338,672.316589 
	C313.288483,672.328613 282.455597,672.363708 251.622849,672.315247 
	C249.685043,672.312195 247.339005,673.210938 245.584259,670.798462 
	C247.915665,668.997681 250.408173,669.148621 252.826721,669.166626 
	C267.131500,669.273010 281.436279,669.544617 295.740570,669.518616 
	C317.012207,669.480042 338.283447,669.116760 359.554871,669.114746 
	C391.855988,669.111755 424.157104,669.298157 456.458191,669.412537 
	C458.180420,669.418640 460.095062,669.083252 460.995972,671.268250 
	C459.319763,673.056274 457.381042,672.286377 455.670074,672.288757 
	C423.836975,672.332336 392.003479,672.389954 360.171051,672.235901 
	C355.614929,672.213867 354.144867,673.533569 354.208313,678.232544 
	C354.435547,695.061462 354.236908,711.896790 354.130859,728.729248 
	C354.080811,736.676575 354.010468,736.694397 362.077820,736.694275 
	C392.910675,736.693848 423.743591,736.660583 454.576324,736.719421 
	C456.533569,736.723145 458.914398,735.819702 460.487885,738.121033 
	C458.928619,740.583618 456.547058,739.860962 454.541443,739.870789 
	C435.209625,739.965332 415.877106,740.039856 396.545349,739.966187 
	C384.551788,739.920532 372.559448,739.592346 360.566071,739.426819 
	C356.631592,739.372498 354.105164,740.202881 354.212708,745.323853 
	C354.558960,761.814758 354.373596,778.316833 354.385284,794.814636 
	C354.390259,801.867737 354.381378,801.866455 361.546509,801.860962 
	C392.546051,801.837402 423.545624,801.800049 454.545135,801.824158 
	C456.650543,801.825806 459.172424,801.079407 461.629364,805.278503 
	C442.807953,805.278503 425.154022,805.278503 406.500061,805.278564 
M424.600922,993.263672 
	C415.825104,992.765198 407.059143,993.522766 398.266754,993.347778 
	C377.718842,992.938843 357.155029,993.357788 336.597595,993.381165 
	C327.452332,993.391602 318.295746,993.809082 309.177734,993.723022 
	C299.034729,993.627319 288.910980,993.172241 278.759827,993.771973 
	C275.229706,993.980530 271.360657,994.294922 268.855377,990.776855 
	C271.768616,983.977234 271.122040,983.107178 263.749359,983.423462 
	C261.268005,983.529846 258.774872,983.441589 256.289642,983.362793 
	C247.351913,983.079529 247.086975,983.321289 247.017761,992.262756 
	C246.961670,999.510925 247.134720,999.717834 254.594711,999.694275 
	C287.382935,999.590698 320.171082,999.372009 352.959259,999.371460 
	C384.594757,999.370911 416.230164,999.638367 447.865753,999.681580 
	C460.313660,999.698608 458.687408,1001.238953 458.791321,988.288025 
	C458.793976,987.955139 458.761719,987.622009 458.765503,987.289185 
	C458.795685,984.614014 457.530884,983.331970 454.801880,983.362549 
	C448.976685,983.427795 443.150299,983.382812 437.324829,983.432617 
	C435.143250,983.451233 433.576935,984.069397 433.221771,986.734192 
	C432.299377,993.655151 432.197510,993.641602 424.600922,993.263672 
M314.472198,983.544250 
	C303.165192,983.986938 291.859955,984.004028 280.544922,983.758667 
	C278.104614,983.705627 274.238434,982.731079 274.182373,987.273743 
	C274.123749,992.023254 277.935089,990.605713 280.423523,990.626709 
	C293.910919,990.740295 307.401031,990.778381 320.887817,990.628113 
	C329.537170,990.531799 338.204102,991.227051 346.836945,990.187012 
	C349.089264,989.915710 351.797302,990.281738 351.694550,986.691895 
	C351.591980,983.107605 349.142670,983.604370 346.730377,983.620605 
	C336.262512,983.691040 325.793854,983.649963 314.472198,983.544250 
M403.041443,983.708557 
	C388.444031,983.683167 373.846466,983.617737 359.249359,983.673157 
	C356.898865,983.682068 354.270782,984.064453 354.455688,987.380310 
	C354.643311,990.744568 357.496918,989.909973 359.432220,989.971130 
	C372.222687,990.375671 385.018921,989.752136 397.820435,990.392578 
	C407.084106,990.855957 416.384827,990.550049 425.667969,990.670715 
	C428.334625,990.705383 429.736633,989.746399 429.683258,986.926880 
	C429.625153,983.856323 427.867737,983.687866 425.334534,983.751282 
	C418.210205,983.929688 411.078247,983.803528 403.041443,983.708557 
z"/>
<path fill="#000000" opacity="1.000000" stroke="none" 
	d="
M49.494228,984.497803 
	C44.033226,990.302490 38.777714,987.590027 33.633392,985.154175 
	C34.256374,978.154846 36.854389,972.122620 41.053085,965.257446 
	C41.564884,969.966492 39.597557,976.103760 47.763493,973.373352 
	C44.528996,980.522156 50.710987,979.555664 53.650661,980.798950 
	C53.234066,983.690369 50.860027,983.112671 49.494228,984.497803 
z"/>
<path fill="#000000" opacity="1.000000" stroke="none" 
	d="
M118.571472,968.458130 
	C120.300049,968.502197 121.753349,968.575989 123.626640,968.671143 
	C122.900040,971.706909 124.354500,974.662170 122.578125,977.607849 
	C117.673409,976.049622 119.523903,971.534058 118.571472,968.458130 
z"/>
<path fill="#000000" opacity="1.000000" stroke="none" 
	d="
M115.378540,966.557007 
	C115.423225,968.908386 114.535545,969.973938 112.439491,969.062195 
	C111.251968,968.545532 110.856232,967.397278 111.585846,966.246277 
	C112.761848,964.391296 114.061539,964.411682 115.378540,966.557007 
z"/>
<path fill="#000000" opacity="1.000000" stroke="none" 
	d="
M341.944855,270.923096 
	C309.628448,270.923859 277.802002,270.923859 245.044983,270.923859 
	C247.119797,266.766418 249.565598,267.751740 251.466125,267.747620 
	C282.630676,267.680023 313.795380,267.703583 344.960052,267.692474 
	C351.901520,267.689972 351.864075,267.665100 351.843048,260.741699 
	C351.792389,244.076523 351.772614,227.411240 351.756317,210.745987 
	C351.749207,203.502670 351.766602,203.434265 344.796753,203.473846 
	C325.148956,203.585403 305.501678,203.840912 285.853882,203.877838 
	C273.208405,203.901611 260.562317,203.643234 247.916656,203.498062 
	C247.110046,203.488815 246.212799,203.539215 245.841919,202.136505 
	C247.559982,199.750015 250.283600,200.749023 252.519485,200.743668 
	C282.013306,200.673096 311.507751,200.811142 341.001190,200.687485 
	C353.677521,200.634354 351.569855,201.872955 351.684387,190.081146 
	C351.834900,174.583862 351.544586,159.080917 351.819061,143.587036 
	C351.906525,138.651047 350.570831,136.841812 345.397949,136.926315 
	C329.070709,137.193024 312.735382,137.061752 296.404022,136.951431 
	C280.930359,136.846909 265.457550,136.591064 249.985214,136.347458 
	C248.614410,136.325867 246.935425,136.937653 245.784698,134.819962 
	C248.838943,132.823944 252.275101,133.030121 255.561478,133.053299 
	C271.052551,133.162521 286.543030,133.574814 302.033234,133.554276 
	C337.310303,133.507492 372.589233,132.980820 407.863068,133.240768 
	C424.008575,133.359756 440.153290,133.418396 456.298828,133.414536 
	C457.909882,133.414139 459.720825,132.770721 460.505310,135.351608 
	C459.231110,137.687378 456.839203,136.892502 454.875275,136.897034 
	C423.877686,136.968216 392.879944,136.978668 361.882263,137.005646 
	C354.401276,137.012146 354.384796,137.016418 354.381409,144.487442 
	C354.374298,160.319733 354.402954,176.152054 354.383545,191.984314 
	C354.372742,200.806290 354.342499,200.755814 362.944214,200.748978 
	C393.441071,200.724762 423.937958,200.720001 454.434692,200.779526 
	C456.382629,200.783325 458.735962,199.958847 460.914246,203.022812 
	C453.128448,203.340683 446.100250,203.821518 439.069153,203.868561 
	C428.913513,203.936523 418.771393,203.371231 408.595978,203.571014 
	C392.449463,203.888046 376.286896,203.592972 360.135406,203.312164 
	C355.849182,203.237625 354.251221,204.513733 354.301941,208.985703 
	C354.500275,226.477570 354.551300,243.976395 354.243195,261.465363 
	C354.154236,266.513184 356.069611,267.749237 360.635529,267.728760 
	C386.966614,267.610687 413.298553,267.672607 439.630188,267.677429 
	C444.963135,267.678406 450.296936,267.645813 455.628479,267.737152 
	C457.185455,267.763824 459.032135,267.209015 460.113739,269.060455 
	C459.751678,271.042664 458.242065,270.563812 456.989594,270.561554 
	C432.171173,270.517365 407.352722,270.434113 382.534302,270.435760 
	C374.721588,270.436279 366.905151,270.852295 359.097717,270.701294 
	C355.255829,270.627014 354.150604,272.082794 354.251343,275.694153 
	C354.441742,282.520996 354.334534,289.357544 354.268066,296.189240 
	C354.251068,297.934082 354.447693,299.781219 353.177948,301.971069 
	C351.438934,299.322540 351.860504,296.797211 351.811157,294.456940 
	C351.691742,288.793335 351.443665,283.101196 351.865112,277.466736 
	C352.244720,272.390961 350.481903,270.277466 345.427734,270.913269 
	C344.445251,271.036865 343.433228,270.925385 341.944855,270.923096 
z"/>
<path fill="#000000" opacity="1.000000" stroke="none" 
	d="
M351.689117,410.369873 
	C352.052490,406.411957 350.384705,405.243896 346.994049,405.278168 
	C325.836334,405.491943 304.677521,405.649414 283.518799,405.687866 
	C271.867584,405.709045 260.215759,405.468872 248.564514,405.321686 
	C247.616501,405.309723 246.527802,405.470612 245.967178,404.298798 
	C246.043457,402.604370 247.388977,402.679535 248.493988,402.659576 
	C254.146973,402.557343 259.801117,402.493134 265.455078,402.473145 
	C292.922150,402.376038 320.389343,402.244415 347.856354,402.275574 
	C351.498444,402.279724 352.564758,401.015350 352.167297,397.532623 
	C351.762421,393.984924 351.556641,390.350433 354.162476,386.987579 
	C354.162476,390.395233 354.354156,393.816498 354.112640,397.206970 
	C353.828461,401.196289 355.733490,402.572327 359.398865,402.642059 
	C365.886108,402.765442 372.390198,402.522156 378.849274,402.360443 
	C392.675659,402.014252 406.470825,402.798248 420.281799,402.635254 
	C432.098083,402.495789 443.917603,402.617096 455.735596,402.650482 
	C457.290558,402.654877 459.050507,402.223083 460.299103,404.157928 
	C458.584839,406.062897 456.483124,405.330597 454.668091,405.332336 
	C423.838776,405.361816 393.009460,405.325836 362.180115,405.320923 
	C354.427002,405.319672 354.378387,405.442688 354.382233,413.098877 
	C354.390381,429.417114 354.328796,445.735382 354.326263,462.053619 
	C354.325134,469.367493 354.625610,469.688354 361.869446,469.694275 
	C392.685455,469.719604 423.501495,469.695496 454.317383,469.756409 
	C456.340912,469.760437 458.706787,468.981354 460.435059,471.383057 
	C458.935211,473.639679 456.596344,472.910797 454.650909,472.899658 
	C435.326019,472.788971 416.001160,472.626648 396.677307,472.395233 
	C384.197815,472.245728 371.717743,473.662537 359.241882,472.379608 
	C355.543610,471.999359 354.274170,473.596954 354.301147,477.280975 
	C354.429352,494.777679 354.489807,512.277649 354.259705,529.772278 
	C354.201019,534.234985 355.906647,535.743286 360.048218,535.709900 
	C370.046295,535.629395 380.045410,535.680481 390.044128,535.683289 
	C411.541443,535.689392 433.038910,535.667603 454.535889,535.758667 
	C456.481659,535.766907 458.931610,534.746704 460.362885,537.368835 
	C458.489990,539.950928 455.754730,539.008606 453.444611,539.015564 
	C422.615936,539.108704 391.786896,539.092102 360.957977,539.118774 
	C354.368591,539.124451 354.341400,539.204407 354.357971,545.875061 
	C354.374939,552.690552 355.261902,559.510254 354.264282,566.321838 
	C354.060852,567.710754 354.431763,569.247437 353.098175,570.832764 
	C351.460205,568.463623 351.962433,566.084534 351.909760,563.890930 
	C351.761658,557.727783 351.506561,551.546448 351.822235,545.399475 
	C352.070343,540.568237 350.272308,539.018616 345.535583,539.039307 
	C316.040466,539.168579 286.544098,539.141418 257.049042,538.994507 
	C253.270737,538.975647 249.182220,540.260986 245.402039,537.732300 
	C246.806564,534.727844 249.273865,535.755676 251.172287,535.751282 
	C282.334930,535.679382 313.497742,535.697449 344.660522,535.687927 
	C351.732971,535.685791 351.730499,535.672974 351.731018,528.417664 
	C351.732208,511.586487 351.643433,494.754395 351.806061,477.924744 
	C351.844971,473.898438 350.888062,472.663696 346.474609,472.710876 
	C313.655243,473.061707 280.831390,473.167572 248.012512,472.458191 
	C247.196030,472.440552 246.329300,472.490906 245.715225,471.217133 
	C246.763000,468.962341 249.052063,469.805084 250.764633,469.799896 
	C277.259888,469.719360 303.755432,469.730682 330.250916,469.720276 
	C335.416840,469.718262 340.594849,469.494232 345.744995,469.777649 
	C350.253632,470.025726 351.915558,468.516266 351.848297,463.808197 
	C351.596008,446.149872 351.714966,428.486237 351.689117,410.369873 
z"/>
<path fill="#000000" opacity="1.000000" stroke="none" 
	d="
M352.165039,354.600220 
	C352.022736,351.435608 351.536133,348.534851 352.014282,345.802979 
	C352.830048,341.142456 350.940918,339.997467 346.649048,340.010162 
	C315.010620,340.103760 283.371704,340.059113 251.733047,339.991547 
	C249.737137,339.987274 247.357178,340.938385 245.726059,338.437836 
	C247.195557,335.722076 249.802170,336.713593 251.872864,336.709381 
	C282.013245,336.648163 312.153870,336.692474 342.294434,336.690063 
	C379.336182,336.687073 416.377960,336.653656 453.419708,336.675385 
	C455.643707,336.676666 458.001373,336.176971 460.517151,337.597809 
	C458.735504,340.531769 456.066681,339.916870 453.819702,339.922882 
	C423.346832,340.004272 392.873718,340.012695 362.400696,340.040527 
	C360.902374,340.041901 359.403961,340.067383 357.905701,340.061401 
	C355.147308,340.050446 354.109802,341.442963 354.191010,344.147583 
	C354.295776,347.636841 354.245331,351.139008 354.062805,354.625214 
	C353.967804,356.440002 353.206268,356.817657 352.165039,354.600220 
z"/>
<path fill="#000000" opacity="1.000000" stroke="none" 
	d="
M292.999939,607.291748 
	C277.126801,607.291809 261.753662,607.291809 245.433334,607.291809 
	C247.301605,603.214905 249.840286,603.876160 251.905289,603.872681 
	C282.716125,603.820740 313.527039,603.820374 344.337952,603.822876 
	C380.718048,603.825867 417.098175,603.822327 453.478088,603.903992 
	C455.798553,603.909180 458.517059,602.965210 460.497314,605.562927 
	C458.874908,608.150818 456.308472,607.217224 454.204193,607.221863 
	C423.559814,607.289062 392.915253,607.263672 362.270721,607.267456 
	C339.347137,607.270325 316.423553,607.283264 292.999939,607.291748 
z"/>
<path fill="#000000" opacity="1.000000" stroke="none" 
	d="
M354.247345,623.798950 
	C354.145905,626.176331 354.045746,628.106384 353.945557,630.036438 
	C350.692017,624.728210 352.422424,619.388123 354.248596,614.010010 
	C354.248596,617.123901 354.248596,620.237793 354.247345,623.798950 
z"/>
</svg>